<?xml version="1.0" encoding="utf-8"?>
<!-- Generator: Adobe Illustrator 23.0.4, SVG Export Plug-In . SVG Version: 6.00 Build 0)  -->
<svg version="1.1" id="Layer_1" xmlns="http://www.w3.org/2000/svg" xmlns:xlink="http://www.w3.org/1999/xlink" x="0px" y="0px"
	 viewBox="0 0 1280 640" style="enable-background:new 0 0 1280 640;" xml:space="preserve">
<style type="text/css">
	.st0{fill:none;}
	.st1{fill:#E1071D;}
	.st2{fill:#223A7A;}
	.st3{fill:#7F8080;}
	.st4{clip-path:url(#SVGID_2_);fill:#020203;}
	.st5{fill:#223A7A;enable-background:new    ;}
	.st6{fill:#9294C9;enable-background:new    ;}
	.st7{enable-background:new    ;}
	.st8{fill:#FFFFFF;enable-background:new    ;}
	.st9{fill:#E30D13;enable-background:new    ;}
	.st10{fill:#F5AAAB;enable-background:new    ;}
	.st11{font-family:'AvenirNext-Heavy';}
	.st12{font-size:72px;}
	.st13{font-family:'AvenirNext-UltraLight';}
	.st14{font-size:54.2183px;}
</style>
<g>
	<rect x="25.89" y="21.82" class="st0" width="315.21" height="166.71"/>
	<path class="st1" d="M205.35,117.5l0.48-1.11c0.81-2.01,1.64-3.54,2.85-5.22c1.28-1.78,4.09-4.4,5.26-4.9
		c1.44-0.62,3.23-0.83,5.44-0.66c1.9,0.15,7.73,1.01,10.08,1.49c1.79,0.36,4.42,0.4,5.65,0.07c2.38-0.62,3.79-1.83,4.46-3.82
		c0.51-1.52,0.51-2.92-0.01-3.84c-0.7-1.24-0.58-1.57,1.12-3.03c0.84-0.74,1.53-1.41,1.53-1.49c0-0.5-1.17-2.46-1.47-2.48
		c-0.19,0-0.55-0.17-0.81-0.35l-0.48-0.35l1-0.47c1.38-0.64,2.4-1.63,2.4-2.33c0-0.3-0.29-1.04-0.66-1.64
		c-0.69-1.16-0.86-2.26-0.48-2.91c0.24-0.44,0.69-0.62,2.83-1.17c1.8-0.47,2.45-0.95,2.71-1.99c0.21-0.89,0.1-1.46-0.48-2.53
		c-0.48-0.87-3.63-5.21-4.52-6.27c-1.23-1.42-2.73-3.89-3.16-5.21c-0.43-1.31-0.45-1.39-0.12-3.07c0.67-3.57,0.28-6.52-1.64-12.26
		c-1.43-4.29-1.81-5.33-2.25-6.13c-0.81-1.44-0.71-1.78,0.95-3c0.79-0.59,1.52-1.21,1.62-1.39c0.5-0.84-0.07-2.46-1-2.91
		c-0.6-0.28-0.93-0.08-1.54,0.92c-0.47,0.77-0.66,0.91-1.14,0.91c-0.81,0-0.95-0.3-0.43-0.92c0.59-0.74,0.55-0.85-0.4-0.97
		c-0.71-0.08-1.07-0.34-2.61-1.74c-2.04-1.88-3.42-2.75-6.15-3.89c-1.26-0.52-1.69-0.77-1.24-0.7c0.4,0.05,1.78,0.15,3.09,0.22
		c3.78,0.17,4.7-0.28,5.58-2.75c0.59-1.68,0.88-2.45-0.5-3.62l-4.94-4.15H339.5v95.68H205.35L205.35,117.5z"/>
	<path class="st2" d="M108.89,117.5c-0.82-0.08-1.53-0.11-1.58-0.16c-0.09-0.08,0.84-0.62,5.09-2.95c1.36-0.75,1.92-1.15,1.73-1.24
		c-0.16-0.07-1.34-0.19-2.64-0.26c-1.93-0.1-2.49-0.07-3.06,0.16c-0.38,0.16-1.91,0.58-3.4,0.93c-3.7,0.87-4.92,1.47-6.11,2.95
		l-0.45,0.57H25.89V21.82h144.03l-2.79,1.64c-1.54,0.69-3.32,1.65-3.97,2.13c-2.19,1.62-5.14,5.33-5.88,7.38
		c-0.28,0.75-0.52,1.03-1.35,1.55c-1.28,0.78-2.8,2.27-4.06,3.96c-1.71,2.3-4.97,7.49-5.61,8.93c-1,2.23-0.92,3.93,0.55,10.6
		c0.64,2.94,1.33,5.92,1.54,6.63c0.21,0.71,0.43,1.91,0.5,2.67c0.12,1.36,0.22,1.65,1.11,3.31c0.24,0.46,0.43,0.97,0.43,1.15
		c0,0.18,0.17,0.42,0.4,0.55c0.24,0.15,0.39,0.41,0.4,0.69c0,0.32,0.47,0.92,1.48,1.94c2.33,2.31,4.02,4.48,4.02,5.17
		c0,0.56-0.91,0.71-2.4,0.38c-1.73-0.38-3.14-1.21-5.32-3.12c-0.93-0.81-1.67-1.36-1.67-1.21s0.62,0.9,1.4,1.68
		c1.54,1.55,1.78,1.97,1.45,2.53c-0.29,0.49-1,0.64-1.97,0.4c-1.12-0.28-1.76,0.11-1.59,0.93c0.1,0.52,0.09,0.57-0.24,0.47
		c-0.62-0.22-2-0.47-3.23-0.59c-1.14-0.1-1.23-0.15-1.9-1.01c-0.52-0.65-0.93-0.95-1.47-1.09c-2.02-0.5-7.06-1.31-10.43-1.64
		c-5.94-0.59-7.37-0.64-10.22-0.32c-2.19,0.23-2.78,0.38-3.97,0.92c-2.12,0.97-5.8,4.02-5.8,4.81c0,0.37,0.81,0.25,1.73-0.27
		c2.8-1.56,12.42-3.77,17.13-3.94c2.33-0.08,2.21,0.02-0.6,0.49c-0.78,0.13-2.61,0.55-4.08,0.96c-1.47,0.4-4.01,1.01-5.63,1.36
		c-1.62,0.34-3.47,0.79-4.08,0.99l-1.12,0.37l1.73,0.02c8.84,0.08,18.89,2.61,23,5.78c1.76,1.36,2.4,1.52,4.99,1.27
		c3.56-0.33,8.15-1.86,10.17-3.38c0.88-0.65,1.59-0.92,1.59-0.57c0,0.6-1.16,3.84-1.66,4.62c-0.55,0.9-0.59,1.02-0.29,1.22
		c0.17,0.12,0.28,0.27,0.21,0.32c-0.07,0.07,0.07,0.17,0.31,0.23c0.67,0.2,0.5,0.38-0.57,0.62c-1.04,0.25-1.87,0.67-1.87,0.96
		c0,0.1,0.14,0.18,0.31,0.18c0.52,0,0.14,0.33-0.55,0.47c-0.47,0.1-0.55,0.17-0.34,0.29c0.21,0.12,0.21,0.17,0.02,0.17
		c-0.14,0-0.26,0.18-0.26,0.42c0,0.28-0.21,0.49-0.62,0.65c-1.02,0.42-0.74,0.64,0.66,0.52c0.71-0.07,1.14-0.07,0.97,0
		c-0.17,0.05-1.31,0.52-2.54,1.04c-1.24,0.5-2.85,1.12-3.58,1.36c-0.83,0.27-1.35,0.54-1.4,0.74c-0.07,0.32,0.31,0.3,1.28-0.03
		c0.17-0.07,0.33-0.03,0.33,0.05c0,0.08-2.12,1.19-4.72,2.46c-2.61,1.27-5.02,2.58-5.4,2.9c-0.38,0.33-0.85,0.6-1.07,0.6
		c-0.21,0-0.48,0.22-0.62,0.47c-0.4,0.79-0.33,0.89,0.62,0.74c1.4-0.22,2.05-0.2,2.14,0.05c0.05,0.13-0.09,0.23-0.31,0.23
		c-0.24,0.01-0.47,0.1-0.64,0.27c-0.14,0.15-0.48,0.3-0.78,0.32c-0.36,0.05-0.69,0.27-0.97,0.65c-0.22,0.32-0.59,0.64-0.81,0.69
		c-0.22,0.05,0.09,0.07,0.71,0.02c9.17-0.62,10.88-0.92,14.58-2.61c3.15-1.44,6.42-3.6,8.76-5.75c0.67-0.62,1.3-1.12,1.38-1.12
		c0.32,0,0.14,1.02-0.32,1.94c-0.81,1.57-2.5,3.02-5.99,5.11c-1.76,1.06-3.66,2.06-4.22,2.21c-1.75,0.5-4.58,1.04-7.55,1.42
		c-9.66,1.26-13.36,2.21-17.02,4.41c-0.62,0.35-1.26,0.64-1.43,0.6c-0.17-0.02-0.64,0.2-1.02,0.5c-1.09,0.85-0.29,0.7,1.99-0.35
		c2.35-1.09,3.44-1.26,1.59-0.25c-2.26,1.24-3.97,2.03-5.66,2.03h-9.01L108.89,117.5L108.89,117.5z M96.89,106.83
		c0.37-0.14,1.58-0.75,2.69-1.36c1.12-0.61,2.44-1.28,2.95-1.49l3.16-1.29c2.58-1.05,6.38-2.04,6.6-1.72
		c0.08,0.11,0.64,0.23,1.26,0.27c0.86,0.05,1.01,0.1,0.66,0.22c-0.25,0.08-0.46,0.22-0.46,0.31c0,0.33,1.91,0.23,2.71-0.14
		c0.32-0.15,1.03-0.32,1.58-0.39c0.69-0.08,1.01-0.2,1.01-0.38c0-0.22,0.18-0.25,0.8-0.15c0.86,0.13,2.7-0.18,7.67-1.31
		c3.36-0.77,5.91-1.54,8.14-2.46l1.62-0.67l-1.62-0.94c-3.95-2.28-7.91-3.69-16.61-5.88c-1.51-0.38-2.84-0.79-2.96-0.89
		c-0.13-0.12-0.07-0.13,0.2-0.05c0.87,0.28,1.53,0.33,1.53,0.12c0-0.27-0.66-0.49-1.95-0.65c-1.18-0.15-1.94-0.47-1.12-0.47
		c1.27,0-0.91-0.74-3.35-1.11c-1.81-0.28-1.91-0.35-1.16-0.69c0.66-0.28,1.36-1.37,1.18-1.81c-0.16-0.39-0.34-0.34-1.33,0.25
		c-1.88,1.14-3.61,3.01-4.58,4.96c-0.55,1.11-0.36,1.21,2.49,1.32c2.35,0.08,2.38,0.1,1.78,0.39c-0.48,0.2-0.99,0.34-1.5,0.42
		c-1.66,0.22-2.57,0.94-1.74,1.36c0.24,0.12,0.16,0.22-0.45,0.49c-0.67,0.28-0.71,0.35-0.4,0.5c0.21,0.1,0.8,0.15,1.31,0.12
		c0.72-0.05,1.05,0.02,1.4,0.28l0.45,0.35l-0.9,0.5c-0.5,0.28-1.05,0.79-1.24,1.11c-0.19,0.32-0.86,1.09-1.52,1.71
		c-0.64,0.62-1.17,1.26-1.17,1.42c0,0.15-0.93,0.97-2.09,1.79c-3.09,2.23-4.44,3.47-4.44,4.05c0,0.32-0.17,0.59-0.48,0.77
		c-0.97,0.57-1.47,1.22-0.93,1.22c0.12,0,0.52-0.12,0.88-0.25C96.96,106.66,96.89,106.83,96.89,106.83z M120.75,104.68
		c0.76-0.09,1.65-0.31,1.96-0.48l0.58-0.31l-0.98-0.44l-0.98-0.44l-0.98,0.36c-0.54,0.2-1.29,0.46-1.66,0.59
		c-1.51,0.51-1.7,1.21-0.29,1.02c0.79-0.1,1.57-0.2,2.36-0.29V104.68z M86.22,96.3c4.54-4.29,7.75-6.83,11.82-9.38
		c1.38-0.87,2.36-1.37,2.41-1.23c0.13,0.35,0.72,0.25,1.69-0.3c1.11-0.64,1.66-1.29,3.05-3.54c1.43-2.35,1.98-2.93,4.05-4.37
		c0.98-0.67,2.4-1.69,3.18-2.25c1.12-0.8,1.38-0.94,1.3-0.62c-0.07,0.23-0.02,0.4,0.14,0.4c0.47,0,2.66-0.85,2.73-1.06
		c0.12-0.33-2.09-0.67-3.73-0.57c-1.26,0.07-1.69,0.2-3.26,0.95c-3.66,1.79-6.32,3.72-11.38,8.29c-3.64,3.28-6.51,5.49-7.96,6.12
		c-0.47,0.2-0.83,0.64-1.4,1.67c-1.11,2.04-3.11,4.98-4.99,7.36c-1.78,2.25-2.16,3.02-0.78,1.57c1.06-1.05,2.13-2.09,3.21-3.12
		C86.28,96.24,86.22,96.3,86.22,96.3z M131.69,116.45c5.46-1.03,6.06-1.1,9.89-1.25c4.3-0.17,4.85-0.27,7.44-1.37
		c0.83-0.35,1.15-0.42,1.27-0.25c0.2,0.29,1.61-0.4,4.35-2.14c1.12-0.71,2.71-1.62,3.52-2.01c1.23-0.6,1.61-0.7,2.2-0.6
		c0.63,0.11,0.82,0.03,1.63-0.6c2.24-1.78,4.15-2.6,6.06-2.61c0.57,0,0.77,0.07,0.77,0.29c0,0.19,0.11,0.26,0.31,0.19
		c0.57-0.2,0.31,0.02-1.15,1.01c-1.69,1.12-1.54,1.47,0.19,0.39c1.66-1.04,1.68-1.04,1.68-0.62c0,0.23-0.64,0.84-1.8,1.71
		c-2.64,1.98-4.51,3.62-7.34,6.45l-2.54,2.46h-32.27l5.81-1.06C131.69,116.43,131.69,116.45,131.69,116.45z M131.74,78.97
		c0.2-0.05,0.52-0.05,0.71,0c0.2,0.05,0.03,0.08-0.36,0.08C131.71,79.05,131.55,79.01,131.74,78.97z"/>
	<path class="st3" d="M226.86,71.97c-0.89-0.12-0.43-0.42,0.65-0.42c1.08,0,1.65-0.37,1.65-1.08c0-0.34-0.07-0.39-0.41-0.29
		c-0.29,0.08-0.5,0.01-0.71-0.24c-0.17-0.23-0.62-0.4-1.28-0.48c-1.16-0.14-3.04-1.15-2.71-1.46c0.12-0.1,0.73-0.23,1.33-0.27
		c1.07-0.08,1.14-0.12,1.35-0.71c0.17-0.44,0.4-0.65,0.78-0.74c0.31-0.06,0.78-0.31,1.05-0.54c0.29-0.23,1.21-0.84,2.04-1.32
		c1.42-0.84,2.3-1.73,1.99-2.01c-0.33-0.3-3.38-0.62-4.83-0.52c-1.68,0.12-4.56,0.67-5.75,1.09c-1.23,0.42-0.88,0.05,0.83-0.85
		c2.3-1.24,6.72-2.38,9.15-2.38c0.95,0,4.13,0.67,4.51,0.95c0.74,0.55-0.07,2.5-1.43,3.47l-0.57,0.4l0.93,0.91l-0.48,0.35
		c-0.26,0.18-0.62,0.35-0.8,0.35s-0.62,0.25-0.98,0.57c-0.55,0.49-0.62,0.64-0.47,1.02c0.12,0.28,0.12,0.57-0.03,0.82
		c-0.14,0.23-0.17,0.75-0.09,1.36c0.17,1.22-0.07,1.66-1.07,1.91c-0.73,0.18-3.42,0.22-4.59,0.05L226.86,71.97L226.86,71.97z"/>
	<g>
		<defs>
			<rect id="SVGID_1_" x="23.7" y="124.46" width="317.41" height="25.98"/>
		</defs>
		<clipPath id="SVGID_2_">
			<use xlink:href="#SVGID_1_"  style="overflow:visible;"/>
		</clipPath>
		<path class="st4" d="M276.33,188.42c-0.17-0.06-0.18-0.23-0.04-0.61c0.18-0.48,0.27-0.51,0.98-0.43c0.64,0.08,0.83,0.02,1.09-0.32
			c0.52-0.66,0.12-1.14-0.83-0.98c-0.73,0.12-0.73,0.11-0.59-0.38c0.43-1.58,0.47-1.49-0.83-1.73c-1.59-0.29-3.06-1.07-4.2-2.22
			c-1.73-1.73-2.31-3.47-2.14-6.28c0.09-1.43,0.21-1.99,0.71-2.98c1.52-3.04,5.01-4.59,9.7-4.32c1.02,0.06,2.3,0.22,2.87,0.35
			l1.02,0.23l0.1,3.38h-0.62c-0.36,0-0.62-0.1-0.62-0.23c0-0.49-1.26-1.59-2.14-1.89c-1.14-0.4-3.35-0.3-4.47,0.18
			c-2.54,1.11-3.7,3.97-2.92,7.26c0.36,1.51,0.95,2.53,2.07,3.58c1.07,0.99,2.16,1.39,3.78,1.39c1.71,0,2.9-0.62,3.66-1.91
			c0.52-0.87,0.69-0.99,1.19-0.7c0.22,0.13,0.22,0.43,0.02,1.83l-0.26,1.67l-0.93,0.28c-0.52,0.15-1.69,0.34-2.61,0.4
			c-1.61,0.1-1.69,0.13-1.69,0.54c0,0.32,0.12,0.44,0.47,0.44c0.67,0,1.31,0.47,1.47,1.09c0.17,0.72-0.4,1.78-1.14,2.13
			c-0.53,0.25-2.64,0.35-3.18,0.15L276.33,188.42L276.33,188.42z M155.01,187.65c-1.76-0.47-3.28-1.18-5.11-2.38l-1.57-1.04
			l-2.44-0.11c-2.71-0.13-3.66-0.4-5.41-1.56c-3.87-2.56-4.01-9.08-0.26-12.25c2.83-2.39,7.79-2.88,11.35-1.13
			c4.82,2.36,5.34,9.34,0.95,13c-0.67,0.57-1.33,1.03-1.47,1.03c-0.41,0,4.39,2.37,5.78,2.85c1.55,0.54,3.35,0.61,4.68,0.18
			c0.97-0.31,1.14-0.27,1.3,0.29c0.1,0.33-0.07,0.46-1.04,0.87c-1.54,0.64-4.75,0.76-6.68,0.25L155.01,187.65L155.01,187.65z
			 M149.04,181.96c3.42-1.61,4.08-6.76,1.28-10.05c-2.59-3.05-7.13-2.59-8.84,0.9c-1.54,3.15,0.22,8.02,3.37,9.31
			c1.28,0.52,2.9,0.46,4.21-0.16C149.05,181.96,149.04,181.96,149.04,181.96z M41.87,183.87c-0.93-0.37-1.96-1.52-3.58-4
			c-2.5-3.83-2.96-4.39-3.66-4.39h-0.61l0.01,2.07c0.01,3.78,0.43,5.07,1.75,5.37c0.35,0.08,0.49,0.24,0.49,0.57v0.46H27.9v-0.42
			c0-0.32,0.16-0.47,0.64-0.6c0.35-0.08,0.83-0.4,1.07-0.69c0.42-0.5,0.43-0.69,0.43-7.66s-0.01-7.15-0.43-7.66
			c-0.24-0.28-0.72-0.59-1.07-0.69c-0.47-0.12-0.64-0.27-0.64-0.57c0-0.4,0.02-0.4,5.18-0.52c5.49-0.12,6.7-0.03,8.24,0.65
			c1.35,0.59,2.48,2.38,2.48,3.94c0,1.79-1.47,3.8-3.41,4.67l-1.02,0.45l2.25,3.03c2.64,3.59,3.47,4.54,4.25,4.91
			c0.73,0.33,0.8,1.09,0.12,1.24c-0.83,0.2-3.51,0.12-4.13-0.13L41.87,183.87L41.87,183.87z M36.77,173.61
			c2.73-0.69,3.65-4.11,1.59-5.9c-0.97-0.84-2.01-1.14-3.33-0.98l-1,0.13v6.96H35C35.53,173.82,36.34,173.72,36.77,173.61
			L36.77,173.61z M83.75,183.87c-1.12-0.36-2.17-1-2.73-1.66c-1.01-1.2-1.12-1.83-1.13-6.71c-0.01-5.1-0.12-5.66-1.16-6.1
			c-0.41-0.17-0.66-0.41-0.66-0.65c0-0.35,0.13-0.37,3.46-0.37c3.46,0,3.47,0,3.47,0.42c0,0.28-0.12,0.41-0.37,0.41
			c-0.2,0-0.59,0.21-0.87,0.47l-0.49,0.48v5c0,4.7,0.02,5.04,0.42,5.73c0.62,1.07,1.86,1.62,3.46,1.53
			c1.71-0.09,2.64-0.64,3.31-1.97c0.52-1.02,0.54-1.07,0.54-5.55c0-4-0.03-4.57-0.36-5.01c-0.21-0.27-0.59-0.55-0.86-0.61
			c-0.33-0.07-0.52-0.25-0.52-0.46c0-0.32,0.19-0.35,2.75-0.35c2.56,0,2.75,0.02,2.75,0.35c0,0.22-0.19,0.39-0.5,0.46
			c-0.95,0.2-1.02,0.6-1.12,5.91l-0.1,4.98l-0.62,1.07c-0.73,1.27-1.9,2.16-3.4,2.56c-1.28,0.34-4.27,0.35-5.28,0.02
			C83.71,183.83,83.75,183.87,83.75,183.87z M163.27,183.87c-1.13-0.36-2.17-1-2.75-1.69c-0.96-1.14-1.1-1.98-1.11-6.78
			c-0.02-4.99-0.14-5.56-1.16-6c-0.43-0.17-0.67-0.41-0.67-0.64c-0.02-0.35,0.12-0.37,3.45-0.37c3.42,0,3.45,0.01,3.45,0.4
			c0,0.27-0.16,0.42-0.45,0.46c-0.24,0.03-0.64,0.29-0.86,0.58c-0.4,0.49-0.43,0.79-0.5,4.82c-0.09,4.96,0.07,6,1,6.86
			c1.67,1.56,5.18,1.12,6.16-0.75c0.62-1.19,0.78-2.66,0.71-6.57c-0.09-4.12-0.22-4.64-1.3-4.88c-0.33-0.07-0.52-0.23-0.52-0.45
			c0-0.32,0.19-0.34,2.75-0.34c2.56,0,2.76,0.03,2.76,0.35c0,0.22-0.24,0.43-0.6,0.57c-0.33,0.13-0.67,0.37-0.76,0.54
			s-0.21,2.55-0.28,5.29l-0.12,4.99l-0.62,1.09c-0.73,1.27-1.9,2.16-3.42,2.56c-1.28,0.35-4.27,0.37-5.28,0.03L163.27,183.87z
			 M227.82,183.86c-0.82-0.32-1.78-1.41-3.28-3.69c-1.94-2.95-2.16-3.22-2.66-3.22c-0.45,0-0.46,0.03-0.46,2.3
			c0,2.75,0.25,3.53,1.21,3.7c0.48,0.09,0.62,0.21,0.62,0.55v0.44h-6.93v-0.44c0-0.34,0.14-0.46,0.62-0.55
			c1.16-0.21,1.24-0.71,1.17-7.11l-0.06-5.67l-0.49-0.48c-0.27-0.26-0.66-0.47-0.87-0.47c-0.23,0-0.37-0.13-0.37-0.35
			c0-0.3,0.21-0.37,1.5-0.48c0.83-0.08,3.09-0.1,5.04-0.07c3.18,0.05,3.64,0.1,4.4,0.47c1.35,0.64,2.11,1.89,2.11,3.47
			c0,1.51-0.95,2.83-2.69,3.72c-0.55,0.28-0.92,0.57-0.8,0.64c0.12,0.07,1.02,1.21,2,2.55c1.94,2.63,3.01,3.8,3.45,3.8
			c0.4,0,0.36,0.85-0.03,0.99c-0.57,0.2-2.81,0.1-3.45-0.15L227.82,183.86L227.82,183.86z M224.05,175.2c0.81-0.38,1.61-1.29,1.75-2
			c0.19-0.92-0.26-2.13-1.04-2.8c-0.72-0.6-1.42-0.79-2.62-0.65l-0.73,0.08v5.66h1.03c0.55,0,1.28-0.12,1.61-0.27L224.05,175.2
			L224.05,175.2z M314.81,183.83c-0.61-0.15-1.15-0.3-1.19-0.34c-0.04-0.03-0.19-0.86-0.33-1.83l-0.25-1.76h0.57
			c0.32,0,0.58,0.07,0.58,0.15c0,0.49,1.34,1.89,2.11,2.23c2.1,0.92,4.62,0.05,4.61-1.57c0-1.07-0.58-1.71-2.54-2.81
			c-2.76-1.56-3.82-2.38-4.37-3.38c-0.55-0.99-0.65-2.55-0.23-3.67c0.27-0.74,1.55-1.86,2.63-2.28c1.08-0.43,4.48-0.42,5.89,0.02
			l1.07,0.33v3.28h-0.59c-0.46,0-0.62-0.1-0.72-0.45c-0.21-0.77-1.31-1.73-2.22-1.94c-2.43-0.59-4.4,1.68-2.87,3.32
			c0.29,0.32,1.62,1.24,2.95,2.06c2.59,1.57,3.54,2.45,3.87,3.47c0.71,2.28-0.47,4.31-2.99,5.14c-1.35,0.47-4.27,0.5-5.98,0.08
			L314.81,183.83L314.81,183.83z M47.68,183.44c0-0.33,0.11-0.43,0.49-0.43c0.29,0,0.67-0.2,0.92-0.49c0.41-0.47,0.42-0.7,0.42-6.27
			c0-4.04-0.09-5.91-0.24-6.19c-0.31-0.52-0.8-0.85-1.24-0.85c-0.24-0.01-0.36-0.16-0.36-0.47v-0.46h12.24v3.89l-0.54-0.06
			c-0.41-0.04-0.6-0.21-0.78-0.69c-0.41-1.1-1.09-1.38-3.5-1.46l-2.14-0.07v5.24l1.64-0.08c1.78-0.1,2.68-0.49,2.8-1.22
			c0.03-0.29,0.21-0.4,0.6-0.4h0.54v4.79h-0.55c-0.45,0-0.57-0.08-0.57-0.44c0-0.82-0.69-1.12-2.68-1.19l-1.81-0.07v2.6
			c0,3.12,0.02,3.17,2.35,3.17c2.3,0,3.49-0.52,4.09-1.79c0.29-0.64,1-0.82,1.23-0.32c0.14,0.33-0.43,2.5-0.86,3.25l-0.31,0.54
			l-5.91-0.03l-5.91-0.03v-0.42L47.68,183.44z M63.38,183.5c0-0.33,0.14-0.46,0.59-0.54c1.07-0.19,1.12-0.47,1.19-6.38
			c0.07-6.15-0.02-6.71-1.14-7.18c-0.47-0.19-0.66-0.4-0.67-0.71v-0.43l4.63,0.08c5.01,0.08,5.42,0.17,6.79,1.19
			c1.48,1.14,1.88,3.4,0.86,5.08c-0.88,1.47-2.42,2.25-4.83,2.46l-1.28,0.12l-0.31-0.7l-0.33-0.7l0.74-0.1
			c0.95-0.12,1.99-0.67,2.54-1.34c0.31-0.37,0.43-0.77,0.42-1.47c-0.03-1.79-1.14-2.88-3.09-3.03l-1.11-0.08l0.05,6.15
			c0.07,6.7,0.1,6.89,1.24,7.1c0.41,0.08,0.55,0.22,0.55,0.55v0.44H63.3v-0.44L63.38,183.5z M97.23,183.43
			c0-0.28,0.12-0.42,0.38-0.42c0.21,0,0.61-0.16,0.86-0.35l0.48-0.35l0.05-5.7c0.07-6.38-0.02-6.87-1.19-7.26
			c-0.38-0.13-0.62-0.34-0.62-0.54c0-0.3,0.28-0.34,3.11-0.38c5.94-0.09,7.2-0.03,8.17,0.39c1.24,0.55,1.83,1.34,1.93,2.63
			c0.03,0.58,0.02,1.26-0.05,1.51c-0.21,0.72-1.16,1.6-2.21,2.04l-0.98,0.41l0.83,0.22c1.95,0.5,3.22,2.38,2.95,4.37
			c-0.22,1.67-1.02,2.63-2.88,3.4c-0.98,0.4-1.24,0.42-5.96,0.42h-4.89v-0.42L97.23,183.43z M106.21,182.05
			c1.03-0.63,1.45-1.48,1.33-2.76c-0.17-1.93-1.67-3.08-4.02-3.08h-1.24l0.05,2.78c0.05,2.66,0.09,2.79,0.53,3.13
			c0.69,0.51,2.4,0.48,3.3-0.07H106.21z M105.36,174.4c1.24-0.44,1.9-1.32,1.78-2.39c-0.17-1.44-1.47-2.24-3.61-2.24h-1.23v4.97
			l1.07-0.01c0.59-0.01,1.47-0.15,1.97-0.32H105.36z M113.72,183.44c0-0.3,0.14-0.42,0.54-0.46c0.29-0.03,0.72-0.28,0.97-0.58
			c0.41-0.5,0.43-0.72,0.43-6.17c0-4.52-0.07-5.73-0.29-6.1c-0.36-0.57-0.83-0.9-1.3-0.91c-0.24-0.02-0.36-0.15-0.36-0.43
			c0-0.42,0-0.42,3.66-0.42c3.66,0,3.66,0,3.66,0.4c0,0.28-0.12,0.4-0.4,0.4c-0.22,0-0.66,0.2-0.97,0.44l-0.52,0.49l-0.07,5.8
			l-0.05,5.8l0.52,0.3c0.42,0.23,0.85,0.28,2.11,0.22c1.93-0.1,2.85-0.54,3.39-1.62c0.34-0.72,0.74-0.89,1.28-0.59
			c0.19,0.12,0.16,0.45-0.16,1.59c-0.22,0.79-0.55,1.64-0.73,1.88l-0.33,0.44l-5.7-0.07l-5.7-0.07v-0.4L113.72,183.44L113.72,183.44
			z M127.98,183.5c0-0.34,0.14-0.46,0.62-0.55c1.12-0.2,1.21-0.7,1.21-6.87c0-5.12-0.03-5.52-0.4-6.07
			c-0.22-0.33-0.64-0.65-0.92-0.71c-0.36-0.07-0.52-0.23-0.52-0.5c0-0.38,0.05-0.38,3.47-0.38s3.45,0.02,3.45,0.4
			c0,0.27-0.17,0.44-0.5,0.52c-0.35,0.11-0.65,0.33-0.86,0.62c-0.33,0.45-0.36,1.06-0.36,6.12c0,6.25,0.09,6.75,1.14,6.95
			c0.43,0.08,0.57,0.22,0.57,0.55V184h-6.92v-0.44L127.98,183.5z M176.72,183.47c0-0.3,0.16-0.43,0.62-0.52
			c1.12-0.2,1.21-0.7,1.21-6.89c0-5.42-0.02-5.51-0.47-6.12c-0.26-0.34-0.67-0.65-0.91-0.68c-0.33-0.04-0.45-0.18-0.45-0.51v-0.45
			h12.02v1.93c0,1.91-0.02,1.93-0.5,1.93c-0.4,0-0.52-0.12-0.62-0.64c-0.24-1.09-1.07-1.46-3.51-1.54l-2.05-0.07l-0.14,0.87
			c-0.07,0.47-0.14,1.66-0.14,2.61v1.74l1.73-0.1c1.9-0.12,2.66-0.42,2.87-1.16c0.09-0.34,0.26-0.47,0.61-0.47h0.48v4.77h-0.5
			c-0.34,0-0.52-0.1-0.52-0.32c-0.02-0.92-1-1.34-3.06-1.34h-1.68l0.07,2.58c0.09,3.13,0.07,3.12,2.5,3.12
			c2.16,0,3.28-0.47,3.87-1.61c0.29-0.59,0.52-0.79,0.85-0.79c0.24,0,0.52,0.08,0.59,0.2c0.19,0.27-0.73,3.27-1.09,3.59
			c-0.24,0.22-1.28,0.25-6.08,0.22l-5.78-0.03v-0.4L176.72,183.47L176.72,183.47z M199.15,183.51c0-0.3,0.19-0.5,0.64-0.69
			c0.36-0.14,0.83-0.5,1.07-0.78c0.41-0.5,0.41-0.73,0.41-7.45c0-7.81-0.02-7.89-1.43-8.31c-0.55-0.17-0.73-0.32-0.73-0.67v-0.45
			h14.26v4.61h-0.62c-0.5,0-0.62-0.08-0.62-0.42c0-0.69-0.76-1.61-1.59-1.93c-0.48-0.18-1.59-0.33-3.04-0.38l-2.3-0.08v6.3
			l1.67-0.02c2.25-0.02,3-0.27,3.49-1.14c0.31-0.57,0.48-0.7,0.97-0.7h0.6v5.54l-0.66-0.07c-0.45-0.05-0.69-0.18-0.76-0.43
			c-0.33-1.09-1.57-1.58-4.06-1.58h-1.31l0.09,3.27c0.09,3.72,0.26,4.27,1.48,4.66c0.53,0.17,0.71,0.34,0.71,0.65v0.42h-8.36v-0.42
			L199.15,183.51L199.15,183.51z M231.77,183.48c0-0.33,0.1-0.46,0.4-0.46c0.62,0,1.33-1.15,2.88-4.64
			c2.07-4.68,4.04-9.44,4.04-9.78c0-0.23,0.21-0.29,0.97-0.29l0.97,0l2.75,6.36c2.99,6.91,3.54,7.98,4.23,8.26
			c0.28,0.11,0.45,0.34,0.45,0.6c0,0.42,0,0.42-3.47,0.42h-3.47v-0.44c0-0.33,0.14-0.46,0.61-0.55c0.88-0.16,0.93-0.69,0.26-2.51
			l-0.59-1.56h-4.82l-0.48,1.29c-0.62,1.62-0.59,2.73,0.09,2.83c0.33,0.05,0.45,0.18,0.45,0.5v0.45h-5.3v-0.45
			C231.71,183.5,231.77,183.48,231.77,183.48z M241.14,177.03c0-0.27-1.5-3.95-1.62-3.95c-0.09,0-0.29,0.35-0.47,0.79l-0.86,2.03
			l-0.52,1.24h1.73c0.95,0,1.73-0.03,1.73-0.08L241.14,177.03L241.14,177.03z M249.91,183.5c0-0.32,0.14-0.45,0.55-0.54
			c1.11-0.2,1.14-0.45,1.23-6.47c0.09-6.2,0-6.72-1.19-7.12c-0.36-0.12-0.62-0.34-0.62-0.54c0-0.29,0.22-0.32,2.3-0.32h2.28
			l1.33,1.52c0.73,0.84,2.61,2.88,4.18,4.56c1.12,1.19,2.22,2.39,3.31,3.6l0.47,0.55l-0.07-4.15c-0.07-4.52-0.19-4.99-1.28-5.24
			c-0.33-0.07-0.52-0.25-0.52-0.47c0-0.32,0.19-0.35,2.75-0.35c2.59,0,2.75,0.03,2.75,0.37c0,0.23-0.17,0.38-0.45,0.42
			c-0.24,0.03-0.64,0.3-0.86,0.59c-0.41,0.5-0.43,0.75-0.5,7.32l-0.07,6.8h-0.9c-0.81,0-0.97-0.07-1.57-0.77
			c-0.55-0.62-9.19-10.29-9.52-10.62c-0.05-0.05-0.05,1.98,0,4.51c0.09,5.14,0.22,5.75,1.19,5.93c0.45,0.08,0.59,0.2,0.59,0.54v0.44
			h-5.49v-0.44L249.91,183.5L249.91,183.5z M285.59,183.49c0-0.27,0.1-0.45,0.28-0.45c0.4,0,1.16-0.85,1.69-1.94
			c0.74-1.49,4.23-9.62,4.83-11.26l0.55-1.52l1.83,0.13l2.69,6.27c1.48,3.45,2.87,6.55,3.07,6.9c0.45,0.82,1.12,1.47,1.47,1.47
			c0.16,0,0.28,0.2,0.28,0.47v0.47h-6.94v-0.47c0-0.32,0.1-0.45,0.36-0.45c0.98,0,1.07-0.77,0.33-2.8l-0.53-1.42h-4.78l-0.43,1.24
			c-0.81,2.35-0.78,3,0.19,3c0.28,0,0.38,0.13,0.38,0.47v0.47h-5.3v-0.47L285.59,183.49L285.59,183.49z M294.24,175.26
			c-0.4-1.04-0.76-2.01-0.83-2.16c-0.07-0.17-0.48,0.54-1.02,1.76c-0.5,1.12-0.9,2.09-0.9,2.16c0,0.08,0.76,0.15,1.71,0.15h1.71
			l-0.71-1.88L294.24,175.26L294.24,175.26z M303.53,183.5c0-0.35,0.1-0.45,0.47-0.45c0.26,0,0.66-0.17,0.86-0.39
			c0.34-0.35,0.38-0.79,0.43-6.11c0.03-3.15,0.02-5.91-0.05-6.13c-0.14-0.52-0.9-1.16-1.36-1.16c-0.26,0-0.38-0.13-0.38-0.4
			c0-0.4,0-0.4,3.45-0.4c3.33,0,3.47,0.02,3.47,0.37c0,0.23-0.22,0.47-0.61,0.6c-0.33,0.13-0.67,0.47-0.79,0.74
			c-0.29,0.7-0.47,6.45-0.28,9.55c0.12,2.16,0.21,2.68,0.54,3c0.21,0.22,0.55,0.38,0.76,0.38c0.26,0,0.36,0.13,0.36,0.47v0.47h-6.92
			v-0.47L303.53,183.5z M326.36,183.47c0-0.32,0.12-0.42,0.5-0.42c0.29,0,0.66-0.2,0.92-0.49c0.4-0.47,0.41-0.69,0.41-6.27
			c0-4.04-0.07-5.9-0.24-6.18c-0.31-0.5-0.8-0.84-1.24-0.86c-0.24,0-0.36-0.15-0.36-0.47v-0.45h12.23v3.89l-0.53-0.05
			c-0.4-0.03-0.59-0.2-0.76-0.69c-0.4-1.09-1.07-1.37-3.5-1.46l-2.14-0.07v5.19h1.28c1.76-0.02,2.62-0.3,3-1.04
			c0.22-0.44,0.43-0.59,0.81-0.59h0.5v4.77h-0.52c-0.47,0-0.57-0.08-0.57-0.43c0-0.82-0.67-1.12-2.68-1.19l-1.81-0.07v2.58
			c0,3.12,0.03,3.17,2.36,3.17c2.3,0,3.49-0.52,4.09-1.79c0.29-0.64,1-0.82,1.23-0.32c0.14,0.33-0.43,2.5-0.86,3.25l-0.31,0.54
			l-5.91-0.03l-5.91-0.03v-0.44L326.36,183.47L326.36,183.47z M53.2,166.66l-0.5-0.35l1.21-1.66c0.67-0.92,1.34-1.68,1.5-1.68
			c0.69,0,2.88,0.42,2.83,0.55c-0.11,0.27-4.13,3.5-4.34,3.5c-0.11,0-0.43-0.16-0.7-0.35L53.2,166.66z M27.29,153.95h310.55v1.65
			H27.29L27.29,153.95C27.29,153.94,27.29,153.95,27.29,153.95z M145.49,150.18c-1.63-0.53-2.55-1.89-2.25-3.37
			c0.21-0.99,0.83-1.69,1.93-2.14l0.97-0.4l-0.59-0.3c-0.33-0.18-0.59-0.46-0.59-0.67c0-0.33,1.5-1.67,1.86-1.67
			c0.09,0-0.03-0.31-0.28-0.68c-1.04-1.6-0.21-3.91,1.74-4.81c1.05-0.49,1.42-0.51,5.11-0.3c2.12,0.12,2.21,0.14,2.09,0.52
			c-0.05,0.22-0.1,0.46-0.12,0.53c0,0.08-0.34,0.14-0.79,0.14h-0.8l0.1,1.07c0.24,2.33-1.61,3.93-4.58,3.98
			c-1.54,0.02-2.28,0.32-1.68,0.67c0.17,0.1,1.17,0.43,2.21,0.73c3.38,0.99,4.01,1.49,3.87,3.07c-0.14,1.65-1.61,3.08-3.73,3.66
			c-1.21,0.33-3.4,0.33-4.44-0.01C145.55,150.18,145.49,150.18,145.49,150.18z M150.03,149.04c1.65-0.74,2.37-2.16,1.47-2.9
			c-0.61-0.5-3.26-1.26-3.95-1.14c-1.4,0.25-2.71,1.79-2.47,2.9c0.33,1.52,2.81,2.1,4.94,1.14L150.03,149.04z M150.57,140.71
			c1.24-0.68,1.73-2.62,0.9-3.58c-1.14-1.31-3.32,0.15-3.33,2.25c0,0.65,0.1,0.88,0.57,1.24c0.69,0.54,1.07,0.55,1.9,0.1
			C150.61,140.72,150.57,140.71,150.57,140.71z M158.31,144.99c-0.9-0.17-1.36-0.7-1.47-1.66c-0.26-2.45,2.02-6.04,4.58-7.2
			c1.33-0.6,3.95-0.66,5.7-0.13c0.16,0.05,0.05,0.68-0.36,1.97c-0.78,2.53-1.24,5.06-0.98,5.5c0.17,0.29,0.29,0.31,0.85,0.14
			c0.5-0.17,0.67-0.15,0.81,0.05c0.29,0.42,0.12,0.57-1.05,0.94c-1.55,0.49-2.28,0.39-2.52-0.33l-0.17-0.57l-0.83,0.42
			c-1.4,0.72-3.33,1.09-4.49,0.87L158.31,144.99z M161.83,143.33c0.6-0.25,1.21-0.65,1.38-0.87c0.28-0.37,1.11-3.13,1.43-4.74
			c0.14-0.66,0.12-0.68-0.62-0.87c-1.36-0.35-2.75,0.55-3.83,2.51c-1.14,2.04-1.43,3.87-0.69,4.35c0.52,0.33,0.83,0.27,2.36-0.38
			L161.83,143.33z M258.38,144.93c-0.92-0.2-1.23-0.49-1.49-1.32c-0.38-1.27,0.5-3.68,2-5.46c1.8-2.13,3.78-2.85,6.72-2.43
			c0.78,0.11,1.47,0.26,1.54,0.33c0.09,0.07-0.17,1.25-0.57,2.61c-0.38,1.36-0.73,3.02-0.74,3.68l-0.03,1.2l0.86-0.03
			c0.78-0.03,0.86,0.02,0.86,0.38c0,0.35-0.19,0.47-1.17,0.74c-1.61,0.45-2.37,0.35-2.45-0.3c-0.03-0.27-0.1-0.5-0.14-0.5
			c-0.03,0-0.57,0.2-1.17,0.44c-0.97,0.38-2.95,0.89-3.35,0.84c-0.07,0-0.43-0.08-0.8-0.15L258.38,144.93L258.38,144.93z
			 M261.8,143.36c0.5-0.23,1.07-0.57,1.26-0.75c0.45-0.47,1.26-2.86,1.69-4.98c0.12-0.57,0.09-0.6-0.69-0.79
			c-0.66-0.17-0.93-0.15-1.52,0.1c-1.3,0.55-2.57,2.43-3.25,4.74c-0.64,2.22,0.16,2.74,2.54,1.67L261.8,143.36L261.8,143.36z
			 M40.66,144.51c-0.05-0.23,0.31-1.94,0.81-3.8c1-3.67,1-3.97-0.1-3.69c-0.53,0.13-0.59,0.1-0.59-0.27c0-0.35,0.19-0.47,1.17-0.73
			c0.64-0.17,1.5-0.33,1.88-0.35c0.67-0.04,0.72-0.01,0.78,0.58c0.03,0.34-0.31,2.02-0.78,3.74c-0.47,1.72-0.8,3.25-0.73,3.41
			c0.1,0.23,0.31,0.26,1.05,0.16c0.88-0.12,0.93-0.11,0.86,0.29c-0.05,0.34-0.31,0.49-1.19,0.74c-0.61,0.17-1.55,0.32-2.09,0.32
			c-0.83,0-0.97-0.05-1.07-0.4C40.68,144.49,40.66,144.51,40.66,144.51z M48.5,144.6l-0.47-0.35l1.59-6.27
			c0.86-3.45,1.55-6.5,1.52-6.79c-0.07-0.54-0.14-0.57-0.93-0.35c-0.38,0.11-0.45,0.06-0.45-0.33c0-0.54,0.72-0.8,2.71-0.97
			c1.14-0.1,1.17-0.1,1.17,0.33c0,0.24-0.31,1.76-0.71,3.36c-0.4,1.61-0.71,3.02-0.71,3.15c0,0.18,0.22,0.15,0.88-0.11
			c2.28-0.91,4.25-0.86,4.97,0.12c0.67,0.92,0.33,3.28-0.76,5.23c-0.55,1.02-2.23,2.6-3.14,2.97c-1.19,0.49-4.96,0.5-5.63,0
			L48.5,144.6z M53.66,143.42c1.04-0.65,2.18-2.86,2.49-4.81c0.33-1.96-1.11-2.35-3.38-0.92c-0.47,0.29-0.85,0.72-1.07,1.22
			c-0.36,0.9-1.12,3.84-1.12,4.36c0,0.77,1.99,0.86,3.11,0.13L53.66,143.42z M61.45,144.36c-0.55-0.52-0.59-0.67-0.59-1.89
			c0.03-3.11,1.99-5.89,4.68-6.65c1.35-0.38,2.54-0.25,3.33,0.36c0.47,0.36,0.55,0.58,0.55,1.33c0,1.89-1.9,3.33-4.66,3.5
			c-0.8,0.05-1.52,0.18-1.59,0.3c-0.22,0.32-0.17,1.37,0.09,1.83c0.52,0.87,1.24,0.9,2.99,0.08c1.09-0.5,1.31-0.55,1.48-0.32
			c0.36,0.51,0.19,0.68-1.38,1.35c-1.31,0.56-1.81,0.67-2.92,0.67c-1.21,0-1.38-0.05-1.94-0.56L61.45,144.36L61.45,144.36z
			 M65.11,139.94c1.74-0.44,2.88-2.11,2-2.92c-0.55-0.51-1.07-0.49-1.8,0.06c-0.57,0.44-1.5,1.81-1.78,2.64
			c-0.1,0.34-0.05,0.4,0.35,0.4c0.26,0,0.83-0.1,1.26-0.2L65.11,139.94z M71.99,144.86c0-0.03,0.36-1.46,0.81-3.17
			c0.45-1.71,0.83-3.48,0.83-3.92v-0.81l-0.81,0.12c-0.73,0.1-0.81,0.07-0.81-0.25c0-0.4,0.66-0.71,2.31-1.09
			c1.14-0.25,1.57-0.08,1.57,0.64v0.43l0.72-0.44c1.28-0.77,2.06-0.92,2.97-0.54c0.45,0.18,0.78,0.42,0.74,0.54
			c-0.55,1.76-0.86,2.31-1.31,2.31c-0.4,0-0.47-0.08-0.47-0.62c0-1.34-1.28-1.34-2.23-0.02c-0.57,0.84-1.17,2.71-1.66,5.21
			c-0.14,0.75-0.36,1.37-0.47,1.41c-0.36,0.1-2.16,0.27-2.16,0.22L71.99,144.86z M82.23,144.68c-0.22-0.23-0.1-0.9,1.07-5.7
			l0.48-1.98h-0.69c-0.38,0-0.69-0.05-0.69-0.1c0-0.28,0.47-0.82,0.71-0.82c0.5,0,1.45-0.87,1.86-1.69c0.45-0.9,0.62-1.06,1.3-1.06
			c0.45,0,0.48,0.07,0.36,0.6c-0.07,0.34-0.19,0.92-0.26,1.29l-0.12,0.69h0.95c0.97,0,1.11,0.15,0.83,0.82
			c-0.09,0.22-0.4,0.3-1.09,0.3c-1.14,0-0.95-0.37-1.85,3.67c-0.66,2.96-0.62,3.23,0.48,2.95c0.93-0.23,1-0.22,0.93,0.25
			c-0.05,0.32-0.31,0.49-1.09,0.72c-1.24,0.39-2.81,0.44-3.13,0.1L82.23,144.68z M90.46,144.45c-1.48-1.44-0.41-5.58,1.97-7.51
			c0.97-0.79,2.49-1.39,3.47-1.39c0.64,0,2.02,0.59,2.23,0.94c0.33,0.55,0.22,1.88-0.19,2.5c-0.85,1.27-2.71,2.09-4.73,2.09h-1.19
			v0.97c0,1.89,0.88,2.21,3.16,1.21c0.73-0.32,1.36-0.55,1.42-0.5c0.05,0.05,0.12,0.25,0.17,0.45c0.05,0.3-0.22,0.5-1.43,1.06
			c-1.31,0.6-1.69,0.69-2.92,0.69c-1.26,0-1.47-0.05-1.9-0.47L90.46,144.45L90.46,144.45z M94.05,139.94
			c1.09-0.32,1.83-0.89,2.16-1.59c0.28-0.59,0.28-0.69-0.09-1.12c-0.55-0.67-1.11-0.69-1.95-0.02c-0.66,0.52-1.76,2.25-1.76,2.75
			C92.41,140.23,93.19,140.21,94.05,139.94z M170.64,144.82c-0.28-0.25-0.1-1.34,0.88-5.09c1.33-5.09,2.04-8.11,2.04-8.6
			c0-0.35-0.09-0.38-0.71-0.28c-0.64,0.1-0.71,0.07-0.71-0.33c0-0.45,0.52-0.67,2.54-1.02c1.05-0.17,1.35-0.05,1.35,0.55
			c0,0.28-0.67,3.18-1.52,6.47c-0.85,3.28-1.54,6.25-1.54,6.58v0.62l0.93-0.1c0.88-0.1,0.93-0.08,0.86,0.3
			c-0.05,0.32-0.31,0.49-1.17,0.72c-1.14,0.33-2.68,0.44-2.92,0.22L170.64,144.82z M178.32,144.71c-0.24-0.37-0.1-1.16,0.76-4.24
			c0.47-1.59,0.8-3.05,0.76-3.22c-0.09-0.32-0.14-0.33-1.02-0.15c-0.47,0.1-0.57,0.07-0.57-0.25c0-0.44,0.88-0.82,2.47-1.11
			c1.14-0.18,1.62-0.08,1.62,0.33c0,0.15-0.41,1.84-0.91,3.75c-0.5,1.91-0.86,3.57-0.78,3.67c0.09,0.12,0.48,0.15,1.04,0.08
			c0.86-0.1,0.91-0.08,0.85,0.3c-0.05,0.32-0.31,0.49-1.19,0.72c-1.31,0.39-2.76,0.44-2.97,0.12L178.32,144.71z M185.85,144.63
			c-0.07-0.17-0.02-0.77,0.12-1.32c0.47-1.84,1.45-6.1,1.45-6.18c0-0.05-0.28-0.08-0.62-0.08c-0.88,0-0.71-0.52,0.33-1.01
			c0.62-0.28,0.98-0.65,1.48-1.52c0.59-0.99,0.76-1.14,1.26-1.14h0.57l-0.28,1.16c-0.16,0.64-0.28,1.21-0.28,1.29
			c0,0.07,0.45,0.13,1.02,0.13c1.07,0,1.11,0.02,0.9,0.69c-0.1,0.37-0.26,0.42-1.17,0.42h-1.05l-0.69,3.1
			c-0.38,1.71-0.64,3.23-0.57,3.4c0.1,0.23,0.26,0.27,0.79,0.12c0.93-0.23,0.98-0.22,0.98,0.27c0,0.37-0.17,0.49-1.19,0.74
			c-1.57,0.4-2.85,0.4-3.02,0L185.85,144.63z M194.26,144.53c-0.5-0.39-0.6-0.6-0.67-1.64c-0.16-2.31,1.02-4.93,2.76-6.13
			c1.93-1.32,4.04-1.49,5.22-0.43c0.55,0.5,0.6,0.64,0.5,1.47c-0.19,1.83-2.12,3.15-4.78,3.27c-1.66,0.08-1.83,0.27-1.5,1.56
			c0.36,1.41,1,1.56,3.04,0.69c1.35-0.57,1.66-0.57,1.66,0c0,0.59-2.44,1.54-4.2,1.62c-1.3,0.07-1.5,0.03-2.02-0.38L194.26,144.53
			L194.26,144.53z M198.58,139.61c1.28-0.59,1.83-1.88,1.11-2.6c-0.91-0.9-2.59,0.29-3.44,2.43l-0.29,0.79l0.91-0.12
			c0.59-0.09,1.17-0.26,1.73-0.49C198.6,139.62,198.58,139.61,198.58,139.61z M247.33,144.88c0-0.03,0.36-1.46,0.81-3.17
			c0.45-1.71,0.83-3.47,0.83-3.92v-0.8l-0.81,0.12c-0.73,0.1-0.81,0.08-0.81-0.25c0-0.44,0.36-0.62,2.02-1.01
			c1.43-0.33,1.87-0.2,1.87,0.57v0.44l0.72-0.44c1.28-0.77,2.06-0.92,2.97-0.55c0.45,0.18,0.8,0.38,0.8,0.44
			c0,0.07-0.19,0.64-0.45,1.26c-0.38,0.95-0.54,1.16-0.92,1.16c-0.38,0-0.47-0.1-0.47-0.62c0-1.26-1.19-1.36-2.09-0.17
			c-0.67,0.91-1.02,1.89-1.59,4.47c-0.24,1.17-0.5,2.18-0.57,2.23c-0.12,0.12-2.26,0.39-2.26,0.28L247.33,144.88L247.33,144.88z
			 M270.85,144.66c-0.16-0.38,0.03-1.52,0.81-4.77l0.67-2.76l-0.57-0.05c-0.67-0.07-0.8-0.67-0.16-0.86
			c0.72-0.2,1.55-0.95,1.95-1.78c0.45-0.9,0.62-1.06,1.3-1.06c0.45,0,0.48,0.07,0.36,0.6c-0.07,0.33-0.19,0.92-0.26,1.29l-0.12,0.69
			h0.95c0.97,0,1.11,0.15,0.83,0.82c-0.09,0.22-0.4,0.3-1.09,0.3c-1.12,0-0.95-0.37-1.85,3.67c-0.66,2.97-0.62,3.23,0.48,2.95
			c0.93-0.23,1-0.22,0.93,0.25c-0.05,0.32-0.31,0.48-1.09,0.72c-1.35,0.42-2.92,0.44-3.09,0.05L270.85,144.66z M279.08,144.48
			c-1.54-1.39-0.47-5.56,1.94-7.51c0.97-0.79,2.49-1.39,3.47-1.39c0.64,0,2.02,0.59,2.23,0.94c0.33,0.55,0.22,1.88-0.19,2.51
			c-0.86,1.29-2.71,2.09-4.75,2.09h-1.21l0.1,1.14c0.16,1.79,0.88,2.04,3.11,1.04c0.73-0.32,1.36-0.55,1.42-0.5
			c0.05,0.05,0.12,0.25,0.17,0.45c0.07,0.3-0.22,0.5-1.43,1.06c-1.3,0.6-1.69,0.69-2.87,0.69c-1.19,0-1.43-0.05-1.9-0.47
			L279.08,144.48z M283.37,139.69c1.43-0.64,2.07-2.11,1.17-2.73c-0.59-0.4-1.02-0.33-1.8,0.28c-0.66,0.52-1.76,2.25-1.76,2.76
			c0,0.3,1.4,0.12,2.37-0.32H283.37z M289.57,144.82c0-0.08,0.38-1.57,0.83-3.32c0.47-1.74,0.81-3.43,0.78-3.75
			c-0.05-0.54-0.1-0.57-0.81-0.54c-0.57,0.02-0.76-0.05-0.85-0.32c-0.07-0.28,0.1-0.42,0.95-0.7c0.6-0.2,1.2-0.36,1.81-0.49
			c0.79-0.13,0.78-0.15,1.28,0.94c0.02,0.02,0.55-0.22,1.21-0.52c1.42-0.64,1.64-0.67,2.5-0.18l0.66,0.35l-0.43,1.19
			c-0.36,1.01-0.52,1.21-0.9,1.21c-0.38,0-0.47-0.1-0.47-0.6c0-1.61-1.69-1.29-2.61,0.49c-0.22,0.43-0.69,1.98-1.02,3.42
			c-0.33,1.44-0.64,2.63-0.67,2.66c-0.17,0.13-2.21,0.25-2.21,0.13L289.57,144.82L289.57,144.82z M299.77,144.82
			c0-0.08,0.33-1.31,0.74-2.71c0.43-1.54,0.74-3.07,0.76-3.84l0.03-1.29l-0.72,0.07c-0.57,0.05-0.76-0.02-0.83-0.29
			c-0.09-0.28,0.09-0.4,0.93-0.64c1.85-0.52,2.28-0.55,2.64-0.22c0.2,0.2,0.31,0.46,0.33,0.74c0,0.23,0.03,0.44,0.09,0.44
			c0.03,0,0.64-0.25,1.35-0.55c1.64-0.7,3.82-1.07,4.47-0.75c0.41,0.2,0.45,0.3,0.33,1.16c-0.09,0.5-0.41,1.93-0.74,3.15
			c-0.33,1.22-0.62,2.51-0.66,2.87c-0.05,0.64-0.05,0.64,0.8,0.62c0.59-0.02,0.9,0.07,0.97,0.25c0.16,0.38-0.03,0.5-1.31,0.84
			c-1.45,0.39-2.8,0.39-2.95,0c-0.07-0.17,0.24-1.76,0.69-3.57c0.9-3.62,0.95-4.04,0.52-4.17c-0.45-0.15-2,0.54-2.94,1.29
			c-0.78,0.62-0.86,0.82-1.35,2.63c-0.28,1.09-0.57,2.36-0.66,2.85c-0.09,0.49-0.26,0.92-0.38,0.96c-0.62,0.17-2.18,0.25-2.18,0.12
			L299.77,144.82L299.77,144.82z M313.76,144.68c-0.07-0.17,0.29-1.86,0.81-3.79c0.52-1.91,0.9-3.59,0.83-3.74
			c-0.07-0.18-0.26-0.2-0.78-0.07c-0.24,0.07-0.48,0.13-0.73,0.18c-0.02,0-0.05-0.18-0.05-0.42c0-0.35,0.19-0.47,1.07-0.7
			c2.42-0.65,3.16-0.54,2.92,0.44c-0.05,0.25-0.48,1.84-0.93,3.55c-0.45,1.71-0.78,3.23-0.71,3.38c0.09,0.2,0.34,0.25,1.05,0.15
			c0.86-0.1,0.91-0.08,0.86,0.3c-0.14,0.79-4.04,1.47-4.33,0.77L313.76,144.68L313.76,144.68z M321.46,144.68
			c-0.14-0.32,0.03-1.19,0.83-4.39c0.88-3.54,0.88-3.22,0.14-3.22c-0.9,0-0.74-0.5,0.29-0.99c0.61-0.28,0.97-0.65,1.45-1.47
			c0.54-0.89,0.76-1.11,1.21-1.16c0.62-0.07,0.62-0.02,0.19,1.96l-0.12,0.6h1.07c0.9,0,1.05,0.05,0.95,0.28
			c-0.07,0.18-0.11,0.36-0.12,0.55c0,0.2-0.28,0.27-1.09,0.27h-1.09l-0.67,3.1c-0.36,1.71-0.6,3.23-0.53,3.4
			c0.1,0.25,0.26,0.27,0.81,0.13c0.93-0.23,0.98-0.22,0.98,0.27c0,0.38-0.17,0.49-1.19,0.74c-1.55,0.4-2.85,0.4-3.02,0
			C321.55,144.77,321.46,144.68,321.46,144.68z M329.85,144.55c-0.57-0.45-0.59-0.5-0.59-2.28c0-1.73,0.03-1.88,0.78-3.22
			c0.92-1.64,1.93-2.53,3.61-3.08c2.9-0.97,4.97,0.69,3.7,2.95c-0.73,1.29-2.64,2.21-4.61,2.21c-1.17,0-1.26,0.03-1.38,0.49
			c-0.17,0.62,0.05,1.54,0.45,1.96c0.47,0.49,1.26,0.4,2.69-0.27c1.07-0.49,1.3-0.54,1.45-0.32c0.36,0.52,0.19,0.72-1.17,1.31
			c-1.05,0.47-1.73,0.62-2.81,0.67c-1.31,0.07-1.5,0.03-2.04-0.38L329.85,144.55z M334.31,139.59c1.38-0.69,1.85-2.06,0.88-2.63
			c-0.36-0.22-0.64-0.25-1.07-0.12c-0.71,0.2-1.74,1.41-2.16,2.53l-0.33,0.87l0.95-0.12c0.52-0.07,1.31-0.3,1.75-0.54L334.31,139.59
			z M25.91,144.43c0.03-0.18,0.25-0.35,0.47-0.39c0.6-0.1,1.12-0.59,1.54-1.42c0.53-1.11,2.23-8.78,2.28-10.37
			c0.03-1.36,0.03-1.37-0.62-1.74c-1.26-0.72-0.91-0.84,2.61-0.84c2.8,0,3.26,0.05,3.26,0.28c0,0.17-0.26,0.33-0.62,0.4
			c-1.3,0.23-1.8,1.39-3.02,7.09c-1.14,5.33-1.14,5.23-0.62,5.7c0.4,0.35,0.6,0.39,2.19,0.32c2.14-0.1,2.92-0.42,3.66-1.54
			c0.59-0.87,0.62-0.89,1.04-0.65c0.24,0.13,0.22,0.32-0.05,1.06c-0.21,0.57-0.47,1.12-0.79,1.64l-0.47,0.74l-5.46,0.05
			c-5.11,0.03-5.46,0.02-5.39-0.29L25.91,144.43z M129.04,144.48c0-0.14,0.35-0.41,0.78-0.6c0.54-0.23,0.9-0.59,1.21-1.17
			c0.59-1.08,2.35-8.92,2.38-10.57c0.03-1.25,0.02-1.29-0.62-1.66c-1.36-0.79-1.05-0.84,5.16-0.84c5.7,0,5.82,0.01,5.7,0.36
			c-0.07,0.18-0.24,0.92-0.38,1.61c-0.21,1.06-0.31,1.26-0.69,1.31c-0.36,0.05-0.45-0.03-0.45-0.44c0-1.22-0.8-1.57-3.66-1.57h-1.97
			l-0.55,2.35c-0.21,0.89-0.43,1.78-0.66,2.66c-0.09,0.28,0.09,0.32,1.71,0.32c2.04,0,2.64-0.2,3.23-1.06
			c0.54-0.77,1.23-0.82,1.07-0.1l-0.47,2.2c-0.28,1.34-0.43,1.69-0.69,1.69c-0.21,0-0.38-0.2-0.47-0.55
			c-0.07-0.3-0.33-0.65-0.59-0.77c-0.48-0.23-3.7-0.35-3.92-0.13c-0.14,0.12-0.74,2.76-1,4.42c-0.12,0.79-0.09,0.89,0.38,1.17
			c0.41,0.25,0.88,0.28,2.31,0.23c2.12-0.1,2.88-0.4,3.76-1.52c0.38-0.49,0.74-0.77,0.9-0.7c0.4,0.13,0.35,0.47-0.25,1.76
			c-0.9,1.93-0.4,1.79-6.65,1.79c-4.58,0-5.47-0.05-5.47-0.27L129.04,144.48z M232.64,144.49c0-0.15,0.31-0.36,0.67-0.47
			c1.3-0.4,1.73-1.45,3-7.4c1.11-5.13,1.09-5.95-0.21-6.32c-0.22-0.07-0.38-0.22-0.33-0.33c0.07-0.15,1.66-0.23,5.75-0.26
			c5.56-0.05,5.66-0.05,5.53,0.3c-0.07,0.2-0.24,0.92-0.38,1.61c-0.21,1.06-0.31,1.26-0.69,1.31c-0.38,0.05-0.45-0.03-0.45-0.52
			c0-1.17-0.98-1.54-3.76-1.46l-1.61,0.05l-0.57,2.38c-0.31,1.31-0.57,2.5-0.57,2.61c0,0.33,3.11,0.3,3.85-0.05
			c0.31-0.15,0.69-0.52,0.83-0.84c0.16-0.35,0.42-0.57,0.64-0.57c0.48,0,0.48-0.13-0.05,2.35c-0.36,1.74-0.5,2.08-0.81,2.08
			c-0.22,0-0.36-0.13-0.36-0.33c0-0.85-1.9-1.51-3.66-1.24l-0.78,0.12l-0.41,2.06c-0.73,3.62-0.69,3.95,0.41,4.36
			c1.23,0.45,0.52,0.62-2.75,0.67c-2.68,0.05-3.2,0.02-3.2-0.22L232.64,144.49L232.64,144.49z M113.02,140.53
			c-0.92-0.37-1.71-1.53-1.71-2.47c0-1.46,1.43-2.77,3.04-2.76c1.92,0.01,3.09,1.06,3.09,2.75c0.02,2.16-2.18,3.4-4.4,2.5
			C113.04,140.54,113.02,140.53,113.02,140.53z M216.82,140.62c-0.35-0.14-0.9-0.56-1.21-0.94c-0.47-0.56-0.57-0.86-0.55-1.64
			c0.03-1.69,1.19-2.73,3.06-2.73c0.93,0,1.24,0.09,1.86,0.55c1.42,1.02,1.64,2.73,0.52,3.94c-0.93,1.01-2.35,1.33-3.64,0.82H216.82
			L216.82,140.62z M94.9,134.08c-0.4-0.4-0.43-0.36,1.88-2.74l0.78-0.8l1.16,0.23c0.64,0.13,1.16,0.29,1.16,0.36
			c0,0.12-4.37,3.31-4.54,3.31c-0.05,0-0.26-0.16-0.47-0.36L94.9,134.08z M198.63,134.08l-0.45-0.33l1.54-1.58
			c0.85-0.87,1.61-1.58,1.71-1.58c0.5,0,2.24,0.45,2.21,0.57c-0.05,0.12-3.85,2.88-4.33,3.15c-0.12,0.06-0.41-0.04-0.66-0.22
			L198.63,134.08z M334.18,134.08l-0.49-0.33l1.6-1.58c0.88-0.87,1.67-1.58,1.76-1.58c0.41,0,2.24,0.44,2.23,0.54
			c0,0.1-3.85,2.9-4.35,3.18c-0.12,0.07-0.45-0.03-0.71-0.21C334.21,134.08,334.18,134.08,334.18,134.08z M43.18,133.13
			c-0.83-0.75-0.02-2.19,1.23-2.19c0.87,0,1.32,0.41,1.32,1.2C45.73,133.37,44.13,133.99,43.18,133.13L43.18,133.13z M180.79,133.26
			c-0.5-0.34-0.47-1.48,0.05-1.95c0.84-0.75,2.45-0.25,2.45,0.77c0,1.11-1.54,1.84-2.49,1.21
			C180.8,133.29,180.79,133.26,180.79,133.26z M316.21,133.13c-0.85-0.76-0.02-2.19,1.26-2.19c1.28,0,1.83,1.29,0.9,2.12
			c-0.63,0.57-1.59,0.6-2.17,0.06H316.21z M137.55,127.87c-0.31-0.31-0.24-0.42,1.23-1.87l1.57-1.54l1.17,0.25
			c0.64,0.13,1.16,0.29,1.16,0.35c-0.02,0.18-4.11,3.02-4.47,3.1c-0.19,0.05-0.48-0.07-0.66-0.25L137.55,127.87z"/>
	</g>
</g>
<g>
	<path class="st5" d="M1100.02,36.72c0-5.72,4.65-10.41,10.33-10.41c5.66,0,10.32,4.71,10.32,10.42c0,5.77-4.57,10.35-10.34,10.35
		C1104.58,47.08,1100.02,42.5,1100.02,36.72z"/>
	<path class="st6" d="M1152.65,179.36c0.01,3.86-2.92,6.83-6.73,6.82c-3.85,0-6.81-2.95-6.81-6.77c0-3.75,2.96-6.75,6.7-6.78
		C1149.64,172.62,1152.64,175.55,1152.65,179.36z"/>
	<path class="st5" d="M1156.15,135.14c-4.72,0.86-9.45,1.69-14.18,2.52c-1.27,0.22-1.39,0.12-1.17-1.14
		c0.81-4.63,1.63-9.25,2.49-13.87c0.17-0.92,0.09-1.73-0.29-2.59c-4.78-10.76-2.36-23.67,5.92-32.04c2.24-2.27,4.66-4.1,7.24-5.5
		V23.13c-0.36-0.18-0.72-0.35-1.09-0.49c-4.7-1.77-10.08-0.6-13.21,2.86c-6.03,6.68-3.78,16.49,4.57,19.83
		c0.65,0.26,1,0.62,1.16,1.3c0.53,2.23,1.07,4.46,1.68,6.67c0.36,1.3,0.42,2.6,0.32,3.92c-0.12,1.74-0.31,3.48-0.39,5.22
		c-0.08,1.77-0.9,3.01-2.43,3.82c-3.8,2.01-7.23,4.54-10.35,7.48c-0.94,0.89-2.06,1.38-3.38,1.3c-2.51-0.15-4.91-0.63-6.87-2.39
		c-0.54-0.49-1.18-0.9-1.81-1.26c-0.83-0.48-1.26-1.12-1.52-2.06c-1.36-5.03-6.4-8.03-11.48-6.91c-5.16,1.13-8.39,5.89-7.59,11.17
		c0.77,5.02,5.45,8.83,10.56,7.99c2.46-0.41,4.07,0.42,5.78,1.69c0.31,0.23,0.63,0.46,0.95,0.67c1.99,1.28,2.72,3.41,3.55,5.44
		c0.29,0.72,0.11,1.54-0.19,2.28c-1.36,3.45-2.22,7.03-2.77,10.69c-0.19,1.26-0.83,2.31-1.97,2.87c-2.8,1.38-5.45,3.2-8.8,3.06
		c-0.85-0.04-1.72,0.04-2.54,0.23c-1.1,0.26-1.65-0.09-2.21-1.07c-3.26-5.78-10.08-8.51-16.17-6.57
		c-8.63,2.75-13.03,12.46-9.56,21.07c2.66,6.6,9.29,10.32,16.02,8.87c5.03-1.09,8.46-4.23,10.56-8.86c0.35-0.77,0.75-1.14,1.63-1.17
		c1.28-0.04,2.55-0.28,3.82-0.35c1.08-0.06,2.16-0.34,3.24-0.04c1.72,0.48,3.45,0.95,5.16,1.44c1.35,0.39,2.37,1.2,2.83,2.55
		c1.59,4.67,3.82,9,6.67,13.02c0.28,0.39,0.55,0.84,0.35,1.3c-1.25,2.88-1.58,6.2-4.17,8.45c-1.14,0.99-2.18,2.12-3.08,3.33
		c-1.25,1.69-2.76,2.49-4.9,2.81c-3.85,0.58-6.43,3.02-7.55,6.76c-1.16,3.85-0.19,7.27,2.74,9.98c2.83,2.62,6.23,3.27,9.86,2.02
		c4.07-1.4,6.54-4.99,6.48-9.27c-0.01-1.11,0.33-1.89,1.1-2.66c1.42-1.43,2.75-2.95,4.09-4.46c1.17-1.32,2.43-2.49,4.12-3.14
		c1.12-0.43,2.21-0.95,3.27-1.52c0.99-0.53,1.83-0.49,2.83,0.09c3.43,2.01,7,3.55,10.7,4.63V135.14z"/>
	<g class="st7">
		<path class="st8" d="M1182.39,135.32c-2.7,1.26-5.63,2.1-8.79,2.48c-0.19,0.02-0.39,0.06-0.58,0.06c-1.01,0.01-2.02,0-3.03,0
			c-4.12,0.21-8.01-0.77-11.76-2.41c-0.63-0.28-1.22-0.36-1.91-0.23c-0.01,0-0.02,0-0.04,0.01v20.55c4.19,1.23,8.54,1.87,13.05,1.91
			c0.92,0.01,1.52,0.36,2.03,1.1c2.45,3.5,4.49,7.16,4.81,11.55c0.03,0.38,0.11,0.77,0.23,1.14c0.28,0.87-0.02,1.41-0.73,1.98
			c-5.07,4.05-6.67,10.49-4.02,15.98c2.11,4.37,6.2,7.21,10.73,8V135.32z"/>
		<path class="st8" d="M1156.29,82.61c4.66-2.53,9.86-3.67,15.58-3.4c3.77,0.18,7.28,1.09,10.53,2.64V61.08
			c-1.07,0.43-2.27,0.51-3.58,0.26c-2.9-0.56-5.83-0.86-8.79-0.85c-2.02,0.01-3.61-0.83-4.7-2.54c-1.11-1.74-2.19-3.48-3.26-5.24
			c-0.26-0.43-0.46-0.9-0.59-1.38c-0.66-2.56-1.28-5.13-1.94-7.68c-0.16-0.63-0.07-1.08,0.36-1.59c2.11-2.51,3.1-5.39,2.98-8.71
			c-0.15-4.16-2.79-8.21-6.58-10.14V82.61z"/>
	</g>
	<path class="st9" d="M1220.08,185.01c0-5.72,4.65-10.41,10.33-10.41c5.66,0,10.32,4.71,10.32,10.42c0,5.77-4.57,10.35-10.34,10.35
		C1224.63,195.37,1220.08,190.79,1220.08,185.01z"/>
	<path class="st10" d="M1243.71,47.03c0.01,3.86-2.92,6.83-6.73,6.82c-3.85,0-6.81-2.95-6.81-6.77c0-3.75,2.96-6.75,6.7-6.78
		C1240.71,40.29,1243.7,43.23,1243.71,47.03z"/>
	<path class="st9" d="M1240.54,71.64c-5.22,1.53-8.37,5.14-9.61,10.41c-0.16,0.68-0.3,1.17-1.08,1.44
		c-4.42,1.56-8.89,2.77-13.65,2.23c-0.27-0.03-0.54-0.01-0.82-0.01c-1.78,0.03-3.11-0.7-4.05-2.26c-2.44-4.06-5.37-7.79-9.07-10.71
		c-2.75-2.16-3.61-4.54-2.79-7.79c0.47-1.87,0.26-3.9,1.09-5.69c1.46-3.17,3.02-6.3,4.5-9.47c0.35-0.75,0.82-1.22,1.63-1.49
		c2.17-0.74,3.89-2.11,5.05-4.09c1.98-3.37,2.02-6.82,0.04-10.18c-1.88-3.2-4.81-4.86-8.5-4.85c-6.84,0.02-11.49,6.79-9.22,13.24
		c0.17,0.47,0.44,0.9,0.15,1.44c-2.68,5.03-4.18,10.77-8.85,14.59c-0.24,0.19-0.42,0.46-0.62,0.7c-0.71,0.84-1.5,1.42-2.37,1.77
		v20.77c2.38,1.14,4.63,2.61,6.73,4.41c5.91,5.05,9.36,11.48,10.14,19.18c0.88,8.57-1.51,16.25-7.32,22.69
		c-2.8,3.1-5.98,5.51-9.55,7.18v62.12c3.04,0.53,6.28,0.14,9.25-1.33c5.69-2.82,8.82-8.78,7.55-14.72
		c-1.09-5.08-4.31-8.41-9.12-10.21c-0.92-0.34-1.37-0.8-1.54-1.76c-0.37-2.14-0.83-4.27-1.27-6.4c-0.09-0.43-0.12-0.83-0.05-1.27
		c0.37-2.22,0.74-4.44,1.08-6.67c0.1-0.69,0.43-1.08,1.07-1.37c4.73-2.07,9.05-4.81,12.89-8.27c0.48-0.43,0.96-0.56,1.59-0.48
		c3.05,0.37,5.94,1.11,8.2,3.4c0.35,0.36,0.78,0.65,1.2,0.91c0.78,0.48,1.13,1.16,1.32,2.07c1.1,5.33,6.32,8.67,11.71,7.53
		c5.3-1.12,8.71-6.43,7.53-11.73c-1.16-5.22-6.13-8.52-11.4-7.58c-0.57,0.1-1.13,0.28-1.68-0.12c-2.6-1.89-5.33-3.62-6.38-6.97
		c-0.38-1.21-0.53-2.28,0-3.47c2.9-6.51,4.38-13.33,4.29-20.48c-0.06-1.12-0.1-2.25-0.17-3.37c-0.06-0.99,0.16-1.94,0.96-2.51
		c3.05-2.16,5.73-4.91,9.55-5.85c1.66-0.41,3.28-0.96,4.89-1.52c0.79-0.27,1.35-0.13,2.01,0.39c2.97,2.33,6.34,3.41,10.12,2.89
		c5.55-0.76,9.45-3.81,11.27-9.05c1.82-5.24,0.89-10.2-3.1-14.21C1250.37,71.36,1245.72,70.12,1240.54,71.64z"/>
</g>
<g>
	<g>
		<path class="st2" d="M62.14,616.6c-21.05,0.04-38.41-17.16-38.44-38.11c-0.04-21.43,16.99-38.82,38.04-38.86
			c21.38-0.04,38.58,17.07,38.66,38.35C100.49,599.44,82.89,616.76,62.14,616.6z M26.31,578.58c-0.04,1.69,0.14,3.8,0.52,5.89
			c1.24,6.87,4.21,12.87,8.91,18.03c0.49,0.54,0.94,0.85,1.72,0.52c2.38-1.01,4.92-1.65,7.04-3.23c0.3-0.23,0.73-0.47,1.07-0.43
			c1.49,0.16,2.01-0.87,2.65-1.89c0.85-1.35,1.25-2.76,1.2-4.35c-0.05-1.45,0.1-2.97-0.36-4.33c-0.65-1.93-0.76-4.21-2.92-5.35
			c-0.46-0.24-0.68-0.76-0.87-1.24c-0.9-2.3-1.78-4.62-2.21-7.07c-0.19-1.08-0.62-2.34,0.07-3.22c1.03-1.3,0.47-2.5,0.26-3.77
			c-0.2-1.2-0.45-2.4-0.55-3.61c-0.37-4.88,0.29-9.52,3.65-13.37c4.08-4.67,9.37-6.9,15.47-7.23c3.78-0.21,7.04,1.02,9.42,4.12
			c0.21,0.27,0.48,0.54,0.78,0.71c1.83,1.06,3.33,2.51,4.69,4.09c3.07,3.57,4.94,7.55,3.91,12.43c-0.33,1.58-0.84,3.11-1.45,4.6
			c-0.16,0.38-0.47,0.79-0.02,1.18c1.51,1.29,1.13,2.91,0.69,4.47c-0.66,2.34-1.6,4.6-2.59,6.82c-0.2,0.46-0.46,1.05-0.86,1.23
			c-1.17,0.54-1.6,1.6-1.99,2.64c-0.55,1.43-1.93,2.39-2.13,4.01c-0.15,1.16-0.47,2.31-0.72,3.46c-0.52,2.39-0.45,4.75,0.27,7.1
			c0.27,0.87,0.73,1.37,1.61,1.67c3.24,1.09,6.46,2.24,9.66,3.43c0.82,0.3,1.43,0.2,2.03-0.38c1.07-1.04,2.2-2.01,3.2-3.12
			c10.23-11.39,12.28-27.41,5.24-41.03c-7.07-13.67-22.45-21.32-37.59-18.71C38.79,545.63,26.28,560.52,26.31,578.58z M74.21,574.35
			c0.8-0.17,1.07-0.52,1.08-1.05c0.03-2,0.11-4.04-0.42-5.97c-0.88-3.29-2.44-6.28-4.37-9.09c-0.97-1.41-2.32-2.09-3.97-2.21
			c-0.97-0.07-1.97-0.04-2.94,0.06c-2.69,0.29-5.39,0.65-8.1,0.57c-1.82-0.05-2.96,0.72-3.83,2.2c-2.5,4.27-4.13,8.8-4.21,13.81
			c-0.01,0.74,0.42,0.94,0.93,1.17c0.62,0.29,0.73-0.14,0.85-0.59c0.1-0.34,0.39-0.49,0.71-0.55c3.85-0.8,7.72-1.63,11.65-1.58
			c3.89,0.05,7.72,0.88,11.55,1.55C74.01,572.82,74.75,573.09,74.21,574.35z M71.12,590.69c-3.28,2.82-6.3,5.45-10.73,4.83
			c-4.21-0.59-7.41-2.79-9.76-6.32c-0.11,0.17-0.19,0.23-0.18,0.29c0.02,0.31,0.07,0.62,0.09,0.93c0.17,2.43,0.6,5.04-1.06,7.05
			c-1.98,2.4-1.16,4.3,0.41,6.31c0.22,0.28,0.39,0.59,0.61,0.87c2.19,2.78,4.76,5.14,8.56,4.75c4.53-0.47,8.5-2.38,11.66-5.78
			c0.58-0.62,0.62-1.25,0.34-2.05c-0.89-2.53-1.2-5.11-0.54-7.76C70.73,592.89,70.87,591.96,71.12,590.69z M44.51,572.32
			c-0.68,0.86-0.38,1.7-0.27,2.53c0.27,1.96,1.14,3.75,1.58,5.65c0.48,2.1,2.91,2.52,3.48,4.46c0.05,0.17,0.28,0.47,0.63,0.34
			c-0.59-2.18-0.24-4.39-0.37-6.57c-0.04-0.66-0.06-1.33-0.14-1.99c-0.13-1.05-1.08-1.07-1.79-1.21c-0.77-0.15-0.43,0.64-0.57,1.01
			c-0.11,0.3-0.17,0.64-0.55,0.68c-0.46,0.05-0.59-0.32-0.7-0.66C45.38,575.14,44.95,573.73,44.51,572.32z M73.53,585.37
			c0.1-0.11,0.23-0.2,0.3-0.32c0.49-0.92,0.46-2.26,1.98-2.34c0.17-0.01,0.35-0.4,0.46-0.65c1.05-2.37,2.04-4.76,2.71-7.27
			c0.17-0.64,0.31-1.31,0.12-1.98c-0.11-0.39-0.26-0.81-0.73-0.81c-0.44,0-0.49,0.44-0.6,0.77c-0.46,1.29-0.89,2.6-1.14,3.95
			c-0.08,0.4-0.05,0.97-0.63,0.99c-0.59,0.03-0.59-0.5-0.67-0.93c-0.05-0.26-0.01-0.61-0.42-0.57c-0.36,0.03-0.73,0.16-0.84,0.54
			c-0.1,0.33-0.1,0.69-0.11,1.04C73.89,580.3,74.02,582.82,73.53,585.37z"/>
	</g>
	<g>
		<path class="st2" d="M214.05,577.82c0.02,21.27-17.23,38.76-38.22,38.78c-21.15,0.01-38.51-17.46-38.45-38.81
			c0.05-20.97,16.71-38.71,38.43-38.69C197.59,539.13,214.13,557.18,214.05,577.82z M187.41,564.97c1.48-0.3,2.65-0.58,3.83-0.77
			c4.93-0.82,9.8-1.83,14.51-3.54c1-0.36,1.2-0.75,0.61-1.69c-1.57-2.46-3.32-4.77-5.38-6.84c-11.67-11.72-29.86-13.91-43.9-5.19
			c-8.21,5.09-13.5,12.43-16.04,21.74c-0.48,1.74-0.38,1.83,1.47,1.88c2.63,0.08,5.27,0.07,7.88,0.29
			c5.25,0.46,9.62-1.84,13.98-4.22c0.43-0.24,0.56-0.52,0.25-0.94c-0.18-0.25-0.37-0.51-0.55-0.76c-2.97-4.05-5.95-8.1-8.92-12.16
			c-0.17-0.24-0.51-0.47-0.34-0.81c0.17-0.35,0.55-0.23,0.85-0.23c0.75-0.02,1.5,0.06,2.24-0.02c1.24-0.14,2.01,0.37,2.73,1.38
			c2.6,3.64,5.31,7.21,7.97,10.81c0.41,0.55,0.83,0.84,1.58,0.7c2.47-0.46,4.95-0.86,7.43-1.24c1.43-0.22,2.89-0.62,4.31-0.08
			c0.85,0.33,1.28,0.02,1.76-0.63c1.89-2.6,3.85-5.17,5.75-7.77c2.35-3.21,2.34-3.22,6.28-3.15c0.37,0.01,0.86-0.19,1.06,0.26
			c0.16,0.36-0.24,0.63-0.44,0.9c-1.96,2.66-3.93,5.3-5.89,7.96C189.48,562.12,188.54,563.41,187.41,564.97z M191.96,586.94
			c0.5,0.46,0.92,0.81,1.29,1.2c1.63,1.73,1.37,4.19-0.67,5.29c-0.98,0.53-0.88,0.89-0.31,1.64c1.98,2.59,3.9,5.22,5.84,7.85
			c0.18,0.24,0.49,0.49,0.29,0.83c-0.15,0.27-0.49,0.18-0.76,0.18c-0.94,0.01-1.89-0.04-2.83,0.02c-0.83,0.05-1.39-0.24-1.88-0.93
			c-1.34-1.89-2.74-3.74-4.13-5.59c-0.66-0.88-2.11-1.03-2.69-0.16c-1.15,1.7-2.75,2.07-4.62,1.95c-0.42-0.03-0.88-0.12-1.2,0.29
			c-1.28,1.64-3.21,1.75-4.94,1.63c-1.4-0.1-2.11,0.33-2.91,1.3c-1.14,1.38-2.42,1.57-3.72,0.57c-0.85-0.66-1.71-0.85-2.73-0.78
			c-1.7,0.12-3.37,0.1-4.85-0.99c-0.49-0.36-1.06-0.18-1.45,0.34c-0.35,0.47-0.69,0.95-1.06,1.42c-0.36,0.46-0.67,0.97-1.38,0.96
			c-1.22-0.02-2.43-0.01-3.65,0c-0.81,0-0.73-0.34-0.35-0.85c0.52-0.69,1.01-1.4,1.52-2.1c0.7-0.96,0.49-2.02-0.68-2.37
			c-2.38-0.7-3.54-2.34-3.99-4.62c-0.15-0.76-0.58-1.16-1.32-1.3c-1.58-0.32-3.15-0.66-4.73-0.97c-0.37-0.07-0.85-0.26-1.12,0.05
			c-0.34,0.4,0.07,0.81,0.23,1.18c2.18,4.74,5.22,8.82,9.14,12.28c11.81,10.44,29.62,11.8,42.78,3.07
			c9.99-6.64,15.39-16.08,16.44-28.02c0.07-0.75-0.2-0.88-0.88-0.76c-2.75,0.48-5.47,1.08-8.18,1.73c-1.01,0.24-1.92,0.66-2.73,1.32
			c-1.56,1.28-3.25,2.34-5.08,3.18C193.8,586.14,192.95,586.5,191.96,586.94z M183.43,580.18c0.07,0.18,0.09,0.3,0.15,0.38
			c1.95,2.21,4.46,3.71,6.84,5.38c0.42,0.29,0.83,0.12,1.23-0.05c2.18-0.9,4.28-1.96,6.25-3.29c1.23-0.82,2.05-1.91,2.43-3.35
			c0.12-0.46,0.13-1.18,0.86-1.02c0.73,0.16,0.46,0.81,0.32,1.27c-0.24,0.77-0.1,1.04,0.75,0.79c2.68-0.79,5.41-1.35,8.17-1.8
			c0.95-0.16,1.21-0.57,1.18-1.48c-0.22-5.21-1.35-10.18-3.57-14.91c-0.29-0.62-0.62-0.8-1.28-0.57
			c-6.25,2.19-12.74,3.41-19.23,4.61c-0.79,0.15-1.37,0.48-1.84,1.12c-2.16,2.95-4.34,5.88-6.5,8.82c-0.18,0.24-0.53,0.52-0.3,0.82
			c0.6,0.77,0.93,1.79,2.17,1.97c1.54,0.22,3.05,0.12,4.58-0.02c0.41-0.04,0.98-0.14,1.07,0.43c0.1,0.63-0.51,0.59-0.91,0.64
			C185.02,580.03,184.24,580.09,183.43,580.18z M170.93,579c-0.69-0.12-1.13,0.1-1.55,0.25c-1.77,0.63-3.52,1.37-5.31,1.92
			c-3.5,1.08-6.97,1.16-10.27-0.71c-1.05-0.59-1.78-1.46-1.56-2.79c0.22-1.32,1.16-1.88,2.38-2.09c1.5-0.25,2.85-0.82,4.1-1.69
			c1.55-1.08,3.27-1.66,5.18-1.71c1.34-0.04,2.65-0.31,3.94-0.65c0.65-0.17,0.77-0.44,0.37-0.98c-0.61-0.82-1.24-1.62-1.8-2.48
			c-0.47-0.72-0.97-0.76-1.68-0.37c-1.66,0.89-3.34,1.75-5.02,2.59c-2.35,1.18-4.84,1.87-7.48,1.8c-3.57-0.09-7.14-0.2-10.71-0.38
			c-0.88-0.05-1.18,0.19-1.28,1.04c-0.62,5.29-0.3,10.48,1.15,15.63c0.42,1.48,1.13,2.07,2.62,2.24c3.16,0.36,6.3,0.94,9.15,2.48
			c0.86,0.46,1.74,0.68,2.71,0.61c0.91-0.07,1.86-0.04,2.59,0.55c0.71,0.57,1.02,0.31,1.47-0.3c2.75-3.78,5.52-7.54,8.29-11.3
			C169.1,581.48,169.97,580.29,170.93,579z M180.31,585.93c-1.33-1.79-2.6-3.43-3.78-5.14c-0.58-0.84-0.92-0.8-1.51,0
			c-2.94,4.03-5.92,8.02-8.87,12.04c-0.27,0.37-0.84,0.69-0.38,1.31c0.45,0.6,0.93,0.47,1.54,0.25c1.49-0.54,3.78,0.11,3.71,1.23
			c-0.15,2.23,1.45,2.85,2.68,3.92c0.24,0.21,0.42,0.46,0.76,0.49c1.3,0.1,2.59,0.03,3.84-0.4c0.33-0.12,0.73-0.26,0.76-0.66
			c0.03-0.48-0.46-0.45-0.77-0.57c-1.24-0.48-2.5-0.92-3.74-1.42c-0.33-0.13-0.91-0.26-0.74-0.74c0.17-0.47,0.69-0.2,1.04-0.1
			c2.05,0.54,4.09,1.1,6.14,1.65c0.93,0.25,1.86,0.22,2.79-0.07c0.47-0.15,0.98-0.34,1.02-0.85c0.05-0.57-0.58-0.55-0.95-0.7
			c-2.28-0.87-4.46-1.94-6.51-3.27c-0.29-0.19-0.86-0.34-0.57-0.84c0.22-0.38,0.65-0.11,0.96,0.02c0.94,0.41,1.85,0.87,2.79,1.26
			c1.85,0.76,3.57,1.84,5.57,2.19c0.32,0.06,0.76,0.24,0.96-0.17c0.15-0.31-0.19-0.57-0.37-0.81c-1.92-2.62-3.66-5.41-6.62-7.07
			c-0.13-0.08-0.25-0.19-0.36-0.3c-0.25-0.24-0.57-0.46-0.42-0.89C179.44,585.82,179.86,586.03,180.31,585.93z M159.08,580.69
			c0.31,0,0.35,0,0.39,0c4.44-0.02,8.26-2.33,12.44-3.32c0.58-0.14,0.8-0.71,0.34-1.32c-0.73-0.97-1.47-1.94-2.14-2.95
			c-0.44-0.66-0.9-0.83-1.68-0.56c-1.34,0.46-2.73,0.68-4.15,0.74c-1.92,0.08-3.7,0.61-5.29,1.74c-1.3,0.92-2.72,1.54-4.31,1.78
			c-1.25,0.19-1.64,1.2-0.9,2.23c0.45,0.63,1.11,0.98,1.84,1.19C156.84,580.56,158.1,580.6,159.08,580.69z M181.97,564.87
			c-0.07-0.35-0.31-0.45-0.53-0.49c-0.54-0.1-1.11-0.3-1.62-0.2c-2.97,0.56-5.95,1.03-8.96,1.37c-0.66,0.08-0.8,0.36-0.37,0.91
			c0.65,0.83,1.29,1.68,1.9,2.55c0.32,0.45,0.66,0.59,1.2,0.39c2.13-0.79,4.29-1.53,6.42-2.34
			C181.03,566.68,181.37,565.62,181.97,564.87z M181.56,580.19c-0.13,0.18-0.06,0.33,0.03,0.45c2.85,3.85,5.7,7.7,8.56,11.55
			c0.63,0.85,1.42,0.73,2.18,0.21c1.05-0.73,1.2-2.35,0.32-3.34c-0.68-0.77-1.54-1.33-2.39-1.9c-2.82-1.86-5.64-3.72-7.8-6.4
			C182.24,580.48,182.03,580.07,181.56,580.19z M163.58,600.74c0.7,0.04,1.4,0.05,2.1,0.13c2.44,0.25,2.75,0.1,3.84-2.08
			c0.19-0.38,0.36-0.78,0.49-1.19c0.5-1.54,0.01-2.19-1.59-2.24c-0.93-0.03-1.43,0.4-1.73,1.25
			C166.11,598.29,165.38,599.89,163.58,600.74z M151.31,593.54c0.56,3.23,2.84,4.66,5.72,3.78c0.75-0.23,1.31-0.81,1.33-1.48
			c0.02-0.72-0.81-0.86-1.42-0.98c-0.38-0.07-0.78-0.07-1.16-0.01c-0.85,0.13-1.64,0.01-2.41-0.36
			C152.73,594.18,152.09,593.9,151.31,593.54z M161.09,599.65c2.31,0.33,4.25-1.02,4.63-3.04c0.09-0.46-0.02-0.86-0.25-1.23
			c-0.33-0.52-0.7-0.74-1.16-0.1C163.29,596.71,162.23,598.11,161.09,599.65z M179.09,568.79c-0.04-0.06-0.09-0.11-0.13-0.17
			c-1.46,0.54-2.92,1.06-4.37,1.61c-0.38,0.15-0.99,0.3-0.59,0.87c0.53,0.73,0.87,1.65,1.8,2.04c0.04,0.02,0.18-0.13,0.25-0.23
			C177.06,571.54,178.08,570.17,179.09,568.79z M170.5,602.42c0.87,0,1.41-0.66,1.87-1.42c0.4-0.66,0.27-1.23-0.4-1.59
			c-0.62-0.33-1.28-0.48-1.74,0.3c-0.24,0.4-0.49,0.8-0.72,1.21C168.99,601.82,169.32,602.38,170.5,602.42z"/>
	</g>
	<g>
		<path class="st2" d="M289.47,538.46c21.71,0.08,39.06,17.61,38.98,39.4c-0.08,21.41-17.81,38.82-39.45,38.74
			c-21.41-0.08-38.8-17.75-38.7-39.33C250.39,555.74,267.91,538.38,289.47,538.46z M311.09,548.45c-10.29-7.48-21.55-9.41-33.6-5.38
			c-14.24,4.76-23.77,17.79-24.44,32.8c-0.43,9.75,5.4,24.42,10.77,26.88c0-1.84,0.01-3.65-0.01-5.45c-0.01-0.69,0.14-1.3,0.56-1.87
			c0.63-0.85,1.21-1.74,1.78-2.64c0.37-0.59,0.86-0.85,1.56-0.83c1.26,0.03,2.52-0.04,3.77,0.02c0.97,0.05,1.35-0.22,0.87-1.18
			c-0.52-1.03-0.35-1.99,0.06-3.04c1.39-3.55,2.81-7.09,4.01-10.7c1.28-3.86,3.56-7.42,3.09-11.84c-0.22-2.07,0.59-4.25,0.89-6.39
			c0.33-2.39,1.2-4.51,2.71-6.42c1.44-1.81,2.71-3.76,4.06-5.64c1.82-2.53,5.92-3.67,8.72-2.35c4.16,1.95,8.55,3.11,13.02,4.06
			C309.62,548.63,310.34,548.68,311.09,548.45z M298.03,591.98c0.82,0,1.65,0,2.47,0c0.36,0,0.76,0,0.94,0.36
			c0.65,1.37,1.52,2.7,1.54,4.27c0.04,4.28,0,8.56,0,12.84c0,1.42,0.08,1.46,1.36,0.86c8.54-4.01,14.76-10.31,18.4-19.02
			c3.69-8.83,3.74-17.79,0.52-26.79c-0.32-0.9-0.85-1.42-1.77-1.67c-1.63-0.44-3.24-0.96-4.85-1.45c-3.96-1.21-7.74-1.03-11.26,1.39
			c-2.46,1.68-5.22,2.06-8.12,1.61c-0.91-0.14-1.8-0.12-2.69,0.11c-0.27,0.07-0.54,0.12-0.65,0.43c-0.17,0.47,0.78,2.88,1.26,2.97
			c0.98,0.19,0.89,0.76,0.69,1.49c-0.74,2.77-1.42,5.56-2.2,8.31c-1.05,3.69-1.53,7.29-0.09,11.06
			C294.78,591.9,294.59,591.97,298.03,591.98z M283.39,596.84c-5.66,0-11.31,0.03-16.97-0.02c-1.1-0.01-1.45,0.34-1.41,1.42
			c0.07,1.88,0.03,3.77,0.01,5.66c-0.01,0.64,0.18,1.11,0.7,1.52c10.5,8.5,22.23,10.59,35.1,6.82c0.76-0.22,0.93-0.68,0.92-1.39
			c-0.02-4.2-0.04-8.41,0.01-12.61c0.01-1.07-0.3-1.43-1.4-1.42C294.7,596.87,289.05,596.84,283.39,596.84z M322.04,561.73
			c-1.91-3.98-4.35-7.22-7.18-10.2c-1.1-1.16-2.26-1.88-3.91-1.67c-0.53,0.07-1.1-0.03-1.64-0.13c-4.92-0.9-9.71-2.26-14.25-4.4
			c-0.69-0.33-1.38-0.78-2.31-0.34c0.38,0.09,0.68,0.11,0.95,0.23c0.56,0.24,1.7,0.11,1.48,0.91c-0.2,0.73-1.08,0.02-1.63-0.08
			c-3.16-0.58-4.51-0.12-6.01,2.17c-0.92,1.41-1.9,2.8-2.97,4.1c-1.77,2.16-2.84,4.57-3.14,7.35c-0.12,1.13-0.39,2.24-0.54,3.37
			c-0.14,1.09-0.22,2.19-0.3,3.28c-0.02,0.23,0.03,0.51,0.33,0.54c0.12,0.01,0.33-0.12,0.36-0.22c0.42-1.54,1.73-2.6,2.14-4.17
			c0.62-2.37,1.42-4.71,3.58-6.19c0.92-0.63,1.35-1.15,0.44-2.15c-0.35-0.38-0.46-0.99-0.64-1.5c-0.15-0.42-0.27-0.93,0.28-1.1
			c0.57-0.17,0.7,0.35,0.83,0.77c0.24,0.75,0.46,1.51,1.13,2.02c0.16,0.12,0.35,0.23,0.54,0.12c0.22-0.12,0.12-0.33,0.08-0.52
			c-0.12-0.57-0.25-1.15-0.33-1.73c-0.04-0.27,0.04-0.6,0.37-0.65c0.36-0.05,0.47,0.29,0.48,0.55c0.04,1.48,0.84,2.52,1.75,3.61
			c1.54,1.83,1.34,2.95-0.6,4.42c-1.55,1.17-3.29,2-5.07,2.73c-1.74,0.71-2.93,1.94-3.62,3.66c-0.22,0.56-0.66,1.18-0.08,1.75
			c0.58,0.56,1.31,0.49,1.99,0.2c0.47-0.19,0.9-0.48,1.33-0.75c1.53-0.96,3.02-1.98,4.6-2.87c2.11-1.19,4.35-2.03,6.85-1.64
			c2.83,0.44,5.45-0.05,7.86-1.67c3.47-2.33,7.23-2.6,11.17-1.43C318.16,560.65,319.97,561.14,322.04,561.73z M283.62,595.6
			c3.85,0,7.69,0,11.54,0c1.77,0,3.53,0.01,5.3-0.01c0.33,0,0.76,0.1,0.89-0.36c0.2-0.65-0.87-2.15-1.56-2.16
			c-1.29-0.03-2.59,0-3.89-0.02c-0.59-0.01-0.8,0.21-0.61,0.78c0.23,0.68-0.16,0.82-0.72,0.86c-4.93,0.37-9.87,0.56-14.81,0.38
			c-2.23-0.08-4.46-0.27-6.69-0.47c-0.42-0.04-1.23,0.08-1.04-0.73c0.19-0.85-0.26-0.82-0.81-0.81c-0.75,0-1.5,0.07-2.24-0.02
			c-1.17-0.14-1.98,0.27-2.48,1.31c-0.16,0.34-0.65,0.61-0.45,1.02c0.21,0.41,0.71,0.22,1.08,0.22
			C272.63,595.6,278.12,595.6,283.62,595.6z M287.7,560.14c0.01,0.17-0.11,0.74,0.56,0.45c1.22-0.53,2.38-1.19,3.23-2.25
			c0.39-0.48,0.04-1.74-0.62-2.13c-0.68-0.4-0.69,0.39-0.96,0.66c-0.5,0.49-0.91,1.06-1.36,1.6
			C288.18,558.91,287.69,559.28,287.7,560.14z"/>
	</g>
	<path class="st2" d="M363.94,577.55c-0.02-21.56,17.5-39.09,39.07-39.09c21.45,0,39.1,17.45,39.12,38.68
		c0.02,21.83-17.37,39.44-38.95,39.45C381.47,616.61,363.96,599.18,363.94,577.55z M387.33,601.99c0.1,0,0.2,0,0.3,0
		c0-0.55-0.04-1.1,0.01-1.65c0.09-0.96-0.3-1.17-1.17-0.91c-1.66,0.49-3.37,0.77-5.08,1.01c-2.44,0.34-4.3-0.57-5.59-2.65
		c-1.02-1.65-1.38-3.5-1.56-5.39c-0.4-4.13,0.77-7.6,4.25-10.11c0.54-0.39,0.99-0.9,1.49-1.34c0.49-0.44,0.66-0.98,0.82-1.62
		c1.49-5.82,4.55-9.69,9.98-10.65c0.82-0.15,1.06-0.44,0.83-1.26c-0.51-1.77-0.96-3.56-1.43-5.35c-0.12-0.47-0.32-0.91-0.76-1.14
		c-1.11-0.58-1.4-1.58-1.58-2.72c-0.4-2.49-1-4.95-2.05-7.23c-0.64-1.39-1.24-2.67-0.87-4.24c0.15-0.64-0.11-0.86-0.77-0.46
		c-2.19,1.33-4.26,2.84-6.09,4.62c-9.17,8.94-12.99,19.82-11.02,32.44c1.85,11.84,8.38,20.63,18.87,26.44
		c1.21,0.67,1.38,0.57,1.4-0.84C387.36,606.62,387.33,604.3,387.33,601.99z M390.03,579.06c-2.63-1.86-5.74-1.46-7.63,0.9
		c-0.96,1.2-1.99,2.32-3.21,3.27c-0.68,0.53-1.37,1.09-1.88,1.77c-2.79,3.74-2.31,7.75-0.72,11.73c0.82,2.05,2.49,2.81,4.68,2.52
		c1.99-0.27,3.96-0.62,5.87-1.22c3.28-1.02,6.48-2.21,9.06-4.6c5.02-4.67,10.52-8.7,16.23-12.48c1.61-1.06,3.3-1.63,5.11-0.93
		c2.19,0.84,3.65-0.19,5.06-1.59c0.19-0.19,0.38-0.41,0.6-0.56c1-0.67,1.92-1.58,3.18-1.68c1.17-0.1,2.35,0,3.53,0.03
		c0.93,0.02,1.67,0.41,2.12,1.25c0.4,0.76,0.78,1.54,1.18,2.31c0.2,0.38,0.39,0.77,0.63,1.12c0.18,0.26,0.47,0.46,0.81,0.34
		c0.36-0.13,0.4-0.48,0.36-0.79c-0.13-1.05-0.25-2.1-0.62-3.11c-0.6-1.63-1.61-2.82-3.32-3.41c-1.04-0.36-2.02-0.85-3.03-1.3
		c-0.24-0.11-0.55-0.25-0.45-0.59c0.1-0.37,0.43-0.32,0.68-0.2c2.49,1.2,5.53,1.62,6.74,4.67c0.01,0.02,0.12-0.01,0.2-0.02
		c0-0.11,0.01-0.23,0-0.34c-0.13-1.6-1.41-2.18-2.57-2.82c-1.03-0.57-2.13-1-3.19-1.52c-0.32-0.16-0.9-0.24-0.66-0.76
		c0.19-0.41,0.62-0.12,0.95-0.04c0.4,0.1,0.72,0.47,1.22,0.36c-1.84-1.59-2.91-1.81-5.31-1.12c-3.88,1.11-7.67,2.53-11.69,3.17
		c-4.86,0.77-9.46,2.57-14.16,3.97c-4.09,1.22-8.31,2.07-12.13,4.12c-2.63,1.41-5.29,2.76-7.95,4.12c-0.4,0.21-0.92,0.58-1.25,0.03
		c-0.36-0.59,0.27-0.79,0.65-1.03c0.16-0.11,0.35-0.18,0.52-0.28C382.99,582.49,386.45,580.81,390.03,579.06z M425.78,556.56
		c0.07-1.74-1.24-2.86-2.9-2.35c-1.53,0.47-2.88,1.21-3.4,2.94c-0.28,0.93-0.73,1.82-1.12,2.72c-0.15,0.35-0.28,0.8-0.75,0.8
		c-0.57,0-0.62-0.53-0.74-0.92c-0.45-1.45-1.17-2.76-2.23-3.83c-2.43-2.46-5.17-4.07-8.84-3.1c-1.17,0.31-2.4,0.42-3.61,0.51
		c-3.74,0.29-7.38-0.11-10.3-2.69c-1.32-1.17-2.35-1.39-3.88-0.6c-0.75,0.39-1,0.64-0.71,1.46c0.83,2.33,1.49,4.71,1.85,7.17
		c0.07,0.51,0.33,0.88,0.76,1.14c0.9,0.55,1.33,1.4,1.56,2.39c0.22,0.96,0.49,1.9,0.73,2.85c0.98,3.87,2.21,7.6,5.06,10.61
		c0.72,0.76,1.29,0.89,2.22,0.6c3.18-1.01,6.37-1.99,9.58-2.91c4.45-1.27,9.1-1.72,13.47-3.34c1.39-0.52,1.41-0.46,0.76-1.74
		c-0.23-0.45-0.44-0.93-0.58-1.41c-0.21-0.73-0.63-0.91-1.32-0.68c-0.99,0.34-1.95,0.23-2.8-0.38c-0.31-0.22-0.9-0.41-0.57-0.97
		c0.3-0.51,0.7-0.25,1.12-0.04c1.3,0.66,2.81,0.29,3.82-0.8C424.9,561.89,425.62,559.34,425.78,556.56z M439.19,572.63
		c-0.48-3.44-1.45-7.02-3.05-10.43c-1.89-4.02-4.38-7.62-7.59-10.71c-0.21-0.21-0.39-0.54-0.77-0.43c-0.22,0.07-0.21,0.31-0.23,0.5
		c-0.18,1.4-0.44,2.8-0.51,4.21c-0.17,3.29-0.85,6.39-3.18,8.89c-0.32,0.35-0.5,0.7-0.31,1.16c0.3,0.72,0.57,1.46,0.91,2.17
		c0.39,0.79,0.99,1.13,1.92,0.85c1.21-0.37,2.44-0.29,3.53,0.38c1.21,0.74,2.51,1.31,3.82,1.83c0.89,0.36,1.71,0.84,2.33,1.56
		c0.61,0.72,1.38,0.95,2.26,1.09C439.06,573.82,439.29,573.58,439.19,572.63z M415.8,588.25c3.79-0.34,7.64-2.27,10.9-5.44
		c0.18-0.18,0.49-0.38,0.27-0.69c-0.17-0.25-0.5-0.21-0.77-0.18c-1.32,0.17-2.64,0.4-3.98,0.14c-1.69-0.33-3.39-0.67-5.09-0.96
		c-1.04-0.18-2.1-0.34-3.1,0.24c-1.7,0.99-3.31,2.1-4.93,3.22c-0.55,0.38-0.53,0.66-0.08,1.09
		C410.7,587.29,412.63,588.3,415.8,588.25z M421.32,580.62c1.16,0.41,2.18,0.51,3.11,0.3c2.17-0.49,4.11,0.26,6.07,0.9
		c1.45,0.47,1.48,0.44,1.71-1.09c0.1-0.66-0.17-0.92-0.72-1.12c-1.07-0.39-2.13-0.81-3.18-1.24c-0.32-0.13-0.75-0.29-0.87-0.55
		c-0.56-1.24-1.31-0.73-2.11-0.34C423.82,578.21,422.82,579.57,421.32,580.62z"/>
</g>
<text transform="matrix(1 0 0 1 295.2012 303.8535)"><tspan x="0" y="0" class="st11 st12">COVID-19</tspan><tspan x="0" y="65.06" class="st13 st14">Confinement LaTeX templates</tspan></text>
</svg>
